<?xml version="1.0" encoding="utf-8"?>
<!-- Generator: Adobe Illustrator 27.5.0, SVG Export Plug-In . SVG Version: 6.00 Build 0)  -->
<svg version="1.1" id="Layer_1" xmlns="http://www.w3.org/2000/svg" xmlns:xlink="http://www.w3.org/1999/xlink" x="0px" y="0px"
	 viewBox="0 0 939.3 438" style="enable-background:new 0 0 939.3 438;" xml:space="preserve">
<style type="text/css">
	.st0{fill:#FFFFFF;}
	.st1{fill:#8E9397;}
</style>
<g>
	<g>
		<path d="M167,0c8.7,7.1,17.4,14.4,26.2,21.4c42.2,33.4,84.3,66.8,126.6,100.1c2.7,2.1,3.6,4.2,3.6,7.6c-0.1,94-0.1,188-0.1,282
			c0,1.7-0.2,3.3-0.3,5c-107.6,0-215.2,0-323,0c0-97.3,0-194.7,0-292c1.3-0.7,2.6-1.4,3.8-2.2c52.9-39.6,105.8-79.3,158.7-119
			c1-0.7,1.7-1.8,2.6-2.8C165.7,0,166.3,0,167,0z M239.4,238.1c0,44.1,0,87.9,0,131.9c12.7,0,24.8,0,36.9,0c0-74.1,0-147.8,0-222.8
			c-37.9,38-75,75.3-113.3,113.7C125.7,222.6,89,184.9,52.2,147.3c-0.5,0.3-0.9,0.7-1.4,1c0,73.9,0,147.7,0,221.6
			c12.3,0,24.4,0,37.1,0c0-44.3,0-88.1,0-132.7c16,16.4,31.2,32.1,46.3,47.7c-21.8,17.4-22.2,43.6-12.6,60.8
			c10.6,19,33,28.4,53.9,22.5c17.6-5,33.5-22.6,32.9-36.6c-0.5-0.1-1-0.3-1.4-0.3c-8,0-16,0.1-24-0.1c-3-0.1-5.2,0.7-7.3,3.1
			c-4.6,5.4-10.7,7.1-17.6,5.3c-7.4-2-12.5-8.6-12.8-16.1c-0.3-7.4,4.3-14.3,11.5-17.1c7.2-2.7,14.8-0.6,19.8,5.4
			c1.2,1.4,2.8,3.6,4.2,3.6c9.3,0.3,18.6,0.2,28.5,0.2c-1.7-13.2-8.6-22.6-17.1-30.1C208,269.6,223.5,254,239.4,238.1z"/>
		<path class="st0" d="M239.4,238.1c-15.9,15.9-31.4,31.5-47.2,47.4c8.5,7.5,15.4,16.9,17.1,30.1c-9.9,0-19.2,0.2-28.5-0.2
			c-1.5-0.1-3-2.2-4.2-3.6c-5-6-12.6-8.1-19.8-5.4c-7.2,2.7-11.8,9.6-11.5,17.1c0.3,7.5,5.4,14.1,12.8,16.1c6.9,1.9,13,0.2,17.6-5.3
			c2.1-2.5,4.2-3.2,7.3-3.1c8,0.2,16,0.1,24,0.1c0.5,0,1,0.2,1.4,0.3c0.6,14-15.3,31.6-32.9,36.6c-20.9,5.9-43.3-3.5-53.9-22.5
			c-9.6-17.1-9.2-43.4,12.6-60.8c-15.1-15.6-30.4-31.3-46.3-47.7c0,44.6,0,88.5,0,132.7c-12.7,0-24.8,0-37.1,0
			c0-73.9,0-147.8,0-221.6c0.5-0.3,0.9-0.7,1.4-1C89,184.9,125.7,222.6,163,260.8c38.3-38.4,75.4-75.6,113.3-113.7
			c0,75,0,148.7,0,222.8c-12.2,0-24.2,0-36.9,0C239.4,326,239.4,282.2,239.4,238.1z"/>
	</g>
	<g>
		<g>
			<path class="st1" d="M427.6,324.6c0,18-12.7,32.7-34.8,32.7h-26.3v-65.4h26.3C415,291.9,427.6,306.6,427.6,324.6z M416.8,324.6
				c0-12.5-7.7-22.6-24.3-22.6h-15.1v45.1h15.1C409.1,347.1,416.8,337.1,416.8,324.6z"/>
			<path class="st1" d="M460.6,301.8v17.9H494v9.8h-33.5v17.9h40.7v9.9H450v-65.4h51.3v9.9H460.6z"/>
			<path class="st1" d="M576.6,337.8c0,12.2-9.6,20.3-25.4,20.3c-12.7,0-23.4-4.3-30.3-9.6l6-8.3c7.2,4.8,15.8,7.8,24.3,7.8
				c10.7,0,14.1-5.9,14.1-9.8c0-14.7-42.8-2.2-42.8-28.7c0-11.6,10.6-18.6,24.9-18.6c5.8,0,17.6,0.9,27.4,8.1l-4.7,8.6
				c-7.6-4.8-16-6.6-22.7-6.6c-8.1,0-13.8,3.6-13.8,8.9C533.6,324.4,576.6,312.7,576.6,337.8z"/>
			<path class="st1" d="M710.8,326.3c0,18.2-14,32.4-33.3,32.4c-19.4,0-33.9-15.4-33.9-34.2c0-19.2,14.7-34.1,34.1-34.1
				c11.9,0,22.3,5.6,28.8,14l-8.1,5.8c-4.6-5.8-12.1-9.8-20.6-9.8c-14.3,0-23.4,10.7-23.4,24.1c0,13,9.1,24.1,23.2,24.1
				c12.2,0,20.4-7.9,22-18.6h-23.3v-10h34C710.6,321.9,710.8,324,710.8,326.3z"/>
			<path class="st1" d="M778.5,291.9h10.7v65.4h-8.8l-37.1-46.8v46.8h-10.7v-65.4h8.8l37.1,46.8V291.9z"/>
			<g>
				<path class="st1" d="M605.3,357.3v-65.4h10.4v65.4H605.3z"/>
				<path class="st1" d="M628,301.9h-35.2v-10.4H628V301.9z"/>
				<path class="st1" d="M628.1,357.9h-35.2v-10.4h35.2V357.9z"/>
			</g>
		</g>
		<path d="M789,415.9H365.9v-10.4H789V415.9z"/>
		<g>
			<path class="st1" d="M435.7,245.8h-10.2v-43.6l-20,28.5h-7.4l-20-28.5v43.6H368v-62.2h8.8l25,35.8l25.1-35.8h8.8V245.8z"/>
			<path class="st1" d="M492.2,216.4l6.4,4.1c-4.2,7.2-12,11.7-21.6,11.7c-15.2,0-25.7-11-25.7-25.6c0-14.6,10.5-25.6,25.7-25.6
				c9.6,0,17.4,4.5,21.6,11.7l-6.4,4.1c-2.9-4.9-8.3-8.3-15.2-8.3c-10.6,0-17.4,8.3-17.4,18c0,9.8,6.8,18,17.4,18
				C483.8,224.6,489.2,221.3,492.2,216.4z"/>
			<path class="st1" d="M524.3,193.2v18.1h31v9.6h-31v25h-10.2v-62.2h48.2v9.6H524.3z"/>
			<path class="st1" d="M609.7,183.6l26.4,62.2h-10.4l-6-14.3h-30.8l-6,14.3h-10.4l26.4-62.2H609.7z M615.8,222.6l-11.6-27.4
				l-11.6,27.4H615.8z"/>
			<path class="st1" d="M713,214.7c0,17.2-12,31.1-33.1,31.1h-25v-62.2h25C701,183.6,713,197.6,713,214.7z M702.7,214.7
				c0-11.9-7.3-21.5-23.2-21.5h-14.4v43h14.4C695.4,236.2,702.7,226.6,702.7,214.7z"/>
			<path class="st1" d="M791.9,214.7c0,17.2-12,31.1-33.1,31.1h-25v-62.2h25C779.9,183.6,791.9,197.6,791.9,214.7z M781.6,214.7
				c0-11.9-7.3-21.5-23.2-21.5H744v43h14.4C774.3,236.2,781.6,226.6,781.6,214.7z"/>
			<path class="st1" d="M823.3,193v17.1h31.8v9.3h-31.8v17.1h38.8v9.4h-48.8v-62.2h48.8v9.4H823.3z"/>
			<path class="st1" d="M929.1,183.6h10.2v62.2h-8.4l-35.3-44.5v44.5h-10.2v-62.2h8.4l35.3,44.5V183.6z"/>
			<path d="M500.9,248h-50.6v-6.8h50.6V248z"/>
		</g>
	</g>
</g>
</svg>
