<?xml version="1.0" standalone="no"?>
<!DOCTYPE svg PUBLIC "-//W3C//DTD SVG 20010904//EN"
 "http://www.w3.org/TR/2001/REC-SVG-20010904/DTD/svg10.dtd">
<svg version="1.0" xmlns="http://www.w3.org/2000/svg"
 width="700.000000pt" height="700.000000pt" viewBox="0 0 700.000000 700.000000"
 preserveAspectRatio="xMidYMid meet">
<metadata>
Created by potrace 1.14, written by Peter Selinger 2001-2017
</metadata>
<g transform="translate(0.000000,700.000000) scale(0.100000,-0.100000)"
fill="#000000" stroke="none">
<path d="M3421 6423 c-18 -72 -40 -249 -56 -453 -8 -113 -27 -311 -40 -440
-58 -556 -77 -1255 -51 -1875 9 -214 18 -428 21 -475 2 -47 2 -71 -1 -55 -3
17 -13 73 -24 125 -11 52 -29 149 -40 215 -78 445 -325 1365 -500 1860 -86
245 -174 514 -185 561 -6 30 -40 72 -50 63 -15 -15 -15 -225 -1 -334 9 -66 29
-244 46 -396 63 -592 150 -1048 329 -1738 28 -107 49 -196 47 -198 -2 -2 -25
50 -51 114 -160 394 -669 1439 -892 1833 -77 135 -178 315 -225 400 -53 95
-92 156 -103 159 -16 3 -17 -4 -11 -70 8 -74 26 -138 177 -619 197 -628 258
-800 457 -1295 49 -123 184 -421 249 -550 20 -40 10 -28 -83 94 -219 290 -290
381 -529 683 -93 118 -211 269 -262 334 -172 224 -373 442 -575 625 -87 78
-128 98 -128 60 0 -36 88 -250 130 -318 24 -37 97 -142 164 -233 66 -91 244
-349 395 -575 347 -519 612 -890 830 -1165 l36 -45 -35 29 c-19 16 -151 135
-293 265 -460 421 -832 746 -1017 888 -104 80 -270 189 -405 266 -38 22 -106
62 -150 89 -53 32 -83 44 -89 38 -14 -14 3 -39 104 -161 47 -56 101 -123 120
-150 19 -26 59 -77 87 -111 29 -35 76 -92 105 -127 100 -122 523 -528 963
-924 165 -148 314 -283 330 -300 28 -29 28 -29 4 -14 -122 74 -617 324 -999
505 -211 99 -923 397 -1002 419 -13 4 -18 0 -18 -14 0 -31 104 -122 290 -253
96 -69 240 -172 320 -231 440 -322 958 -621 1430 -826 63 -28 230 -94 370
-147 140 -54 368 -143 505 -198 l251 -101 13 -201 c7 -111 15 -352 17 -536 3
-184 7 -345 10 -358 4 -19 10 -23 32 -20 l27 3 7 130 c4 72 9 290 12 485 3
195 9 379 15 409 6 29 11 55 11 57 0 12 126 64 255 104 168 54 189 61 260 95
28 13 145 63 260 110 249 102 911 439 1180 600 99 59 286 169 415 243 360 206
721 454 866 597 109 107 83 117 -103 40 -76 -31 -250 -108 -388 -170 -137 -62
-322 -143 -410 -180 -309 -131 -786 -372 -1275 -647 l-35 -20 30 30 c17 16
107 98 200 183 341 308 1326 1293 1598 1598 72 81 124 158 113 168 -21 21
-370 -195 -617 -383 -125 -95 -481 -380 -599 -480 -47 -39 -139 -117 -205
-172 -66 -54 -196 -166 -289 -248 -257 -226 -249 -222 -150 -88 48 65 122 164
164 219 151 197 505 719 662 975 52 85 162 259 244 385 182 279 354 558 354
574 0 14 -25 14 -53 -1 -126 -67 -579 -570 -917 -1018 -52 -69 -175 -226 -274
-350 -98 -124 -222 -286 -274 -360 -170 -240 -334 -470 -336 -470 -1 0 66 138
150 308 139 281 253 546 464 1072 85 214 153 411 224 652 26 86 80 250 120
365 75 211 84 263 47 263 -9 0 -21 -4 -27 -8 -19 -12 -103 -120 -125 -160 -12
-20 -29 -48 -39 -62 -10 -14 -41 -72 -70 -129 -29 -58 -82 -157 -118 -220
-152 -268 -596 -1177 -787 -1614 -43 -97 -80 -175 -82 -173 -7 7 36 207 67
320 16 56 40 146 54 201 25 102 158 778 196 1005 41 242 120 816 130 950 6 74
15 182 20 239 9 107 2 151 -24 151 -16 0 -34 -40 -114 -255 -106 -285 -181
-529 -306 -995 -158 -592 -239 -945 -326 -1420 -33 -184 -62 -342 -64 -350
-12 -50 2 426 24 870 14 278 -1 1053 -29 1520 -11 173 -23 389 -26 480 -12
283 -55 490 -102 490 -7 0 -17 -17 -22 -37z m58 -225 c1 -20 6 -49 12 -65 6
-15 15 -172 21 -348 5 -176 11 -347 13 -380 9 -138 18 -337 20 -440 6 -278 5
-932 -1 -917 -8 17 -24 15 -24 -3 0 -8 5 -15 10 -15 14 0 13 -123 -2 -138 -9
-9 -9 -12 0 -12 15 0 16 -54 2 -80 -7 -13 -7 -21 1 -25 7 -5 5 -15 -5 -30 -12
-19 -13 -25 -2 -34 9 -8 11 -25 5 -65 -4 -29 -8 -152 -8 -272 -2 -286 -19
-732 -36 -964 l-14 -185 4 170 c3 96 1 176 -5 185 -5 8 -5 17 0 20 4 3 5 23 1
46 -4 22 -4 90 0 150 4 61 7 214 8 340 0 150 4 230 11 232 5 2 7 9 3 15 -4 7
-8 17 -9 22 -4 29 -18 55 -28 52 -6 -2 -13 -21 -16 -43 -5 -35 -6 -31 -13 31
-15 150 -7 245 19 204 18 -29 24 35 25 257 0 155 5 244 12 252 7 10 6 17 -5
29 -26 25 -40 6 -38 -51 2 -28 2 -100 1 -160 -1 -89 -3 -107 -14 -97 -8 6 -17
8 -20 4 -11 -10 -8 -73 3 -73 6 0 10 7 10 15 0 8 5 15 10 15 6 0 10 -33 10
-79 0 -72 -2 -79 -22 -84 -21 -6 -21 -6 -14 -234 3 -125 9 -399 11 -608 3
-209 7 -445 9 -525 2 -80 2 -127 -1 -105 -57 569 -83 982 -83 1339 0 103 -3
133 -16 147 -10 11 -12 19 -5 24 14 8 14 65 1 65 -15 0 -12 38 3 43 9 3 9 9
-1 28 -8 16 -13 79 -14 194 -2 189 9 692 16 770 6 57 19 337 19 375 -1 40 16
277 37 510 11 118 24 287 30 375 5 88 15 196 22 239 l12 79 17 -79 c10 -43 18
-96 18 -116z m886 -300 c-4 -46 -11 -90 -17 -98 -7 -11 -8 -8 -5 13 2 15 1 27
-4 27 -14 0 -25 -31 -38 -100 -7 -36 -26 -120 -42 -188 -17 -68 -29 -137 -27
-155 4 -31 4 -31 21 18 l17 50 -7 -49 c-4 -39 -3 -48 8 -44 10 3 25 66 49 196
19 105 36 190 38 188 10 -10 -58 -467 -119 -801 -38 -209 -78 -429 -89 -490
-10 -60 -32 -171 -49 -245 -16 -74 -40 -187 -51 -250 -12 -63 -51 -234 -85
-380 -35 -146 -76 -319 -90 -385 -14 -66 -35 -154 -46 -195 -30 -110 -103
-307 -107 -287 -2 9 -8 17 -13 17 -5 0 -8 10 -8 23 1 16 2 18 6 5 2 -10 8 -18
13 -18 10 0 16 27 25 103 6 49 5 57 -9 57 -10 0 -14 5 -11 10 3 6 15 10 26 10
26 0 24 26 -3 33 -12 3 -25 4 -28 2 -11 -7 -32 -124 -25 -136 4 -5 2 -16 -4
-23 -14 -17 -73 -303 -69 -336 2 -14 -2 -29 -8 -35 -7 -5 -24 -65 -39 -133
-27 -127 -63 -242 -64 -207 0 11 6 67 14 125 9 58 20 173 25 255 6 83 19 186
30 230 10 44 22 101 25 127 5 31 11 45 19 42 10 -4 36 33 36 51 0 15 -22 2
-31 -17 -12 -28 -6 25 18 154 10 59 19 85 27 82 12 -4 36 34 36 56 0 18 -19
10 -25 -11 -4 -11 -9 -18 -12 -16 -2 3 14 95 38 204 40 189 43 199 64 196 19
-4 22 2 34 64 7 37 15 80 17 96 3 15 2 27 -3 27 -10 0 -43 -106 -43 -138 0
-12 -5 -22 -11 -22 -6 0 -8 8 -6 18 3 9 11 47 18 84 10 54 10 70 -1 82 -10 13
-10 16 3 16 20 0 21 4 107 380 79 346 212 901 263 1095 19 72 37 150 41 175
14 97 111 400 132 413 7 4 18 32 24 62 6 30 14 55 17 55 3 0 2 -37 -2 -82z
m-1785 -291 c10 -40 26 -90 36 -112 35 -83 116 -365 193 -666 52 -203 85 -315
94 -321 9 -4 21 -34 27 -65 7 -32 14 -64 17 -73 4 -13 4 -13 -6 0 -9 13 -11
12 -11 -4 0 -35 64 -286 73 -286 4 0 6 8 3 18 -2 9 -7 33 -10 52 -5 31 -4 30
9 -9 8 -25 17 -61 19 -80 3 -20 3 -28 0 -18 -5 17 -24 24 -24 10 0 -30 46
-223 54 -223 5 0 6 18 2 40 -16 106 -13 116 9 30 27 -107 30 -137 13 -142 -8
-3 4 -71 40 -229 75 -326 108 -495 172 -869 38 -225 90 -569 90 -593 -1 -28
-20 21 -20 50 0 17 -5 35 -10 38 -6 4 -8 11 -5 16 3 5 -7 48 -24 96 -16 49
-35 120 -41 158 -7 39 -16 79 -20 90 -5 11 -11 31 -14 45 -11 56 -86 344 -90
348 -3 2 -10 1 -16 -3 -11 -7 -7 -51 10 -90 4 -11 16 -56 25 -100 9 -44 25
-109 35 -145 18 -60 26 -94 50 -205 5 -22 16 -67 24 -100 35 -135 10 -76 -71
165 -302 904 -600 2225 -642 2846 -6 76 -15 162 -20 189 -19 93 -31 193 -30
252 l0 58 20 -48 c11 -27 28 -81 39 -120z m-772 -160 c110 -201 123 -229 180
-362 16 -38 37 -89 47 -112 10 -24 24 -43 32 -43 7 0 13 -3 13 -7 0 -5 37 -75
82 -158 121 -222 238 -460 227 -463 -5 -2 -9 -8 -9 -14 0 -6 6 -8 14 -5 16 6
122 -206 286 -574 96 -216 107 -245 93 -256 -14 -11 -13 -14 11 -22 24 -10 32
-29 27 -70 -2 -7 2 -10 7 -7 6 3 22 -24 37 -61 17 -43 23 -69 16 -71 -6 -2
-11 -8 -11 -13 0 -4 6 -6 13 -3 9 3 22 -18 40 -63 31 -79 32 -84 12 -77 -9 4
-15 0 -15 -8 0 -22 12 -29 26 -17 17 14 34 -25 34 -75 0 -19 6 -39 14 -45 8
-7 17 -28 21 -49 4 -20 10 -41 13 -47 4 -5 7 -15 8 -22 1 -7 9 -26 18 -43 8
-17 12 -38 9 -47 -4 -9 1 -21 12 -29 13 -10 16 -21 11 -48 -5 -24 1 -53 18
-101 32 -84 36 -91 47 -74 6 9 9 1 9 -23 0 -21 9 -61 21 -90 75 -189 86 -240
18 -85 -21 49 -41 82 -50 82 -21 0 -29 16 -18 36 16 30 11 42 -16 37 -14 -3
-25 -1 -25 3 0 5 5 9 10 9 6 0 10 5 10 10 0 6 -10 10 -22 10 -20 0 -20 1 -5
18 21 23 22 42 3 42 -8 0 -16 7 -20 15 -3 8 -13 15 -22 15 -8 0 -14 6 -11 13
2 6 14 11 26 9 28 -3 23 21 -4 27 -31 6 -68 33 -55 41 14 9 2 40 -16 40 -18 0
-35 41 -23 54 14 16 11 26 -9 26 -21 0 -61 72 -43 78 18 6 12 19 -11 26 -17 4
-20 8 -10 15 10 6 8 10 -10 15 -14 4 -18 9 -10 13 6 2 12 9 12 14 0 6 -4 7
-10 4 -5 -3 -27 29 -47 71 -27 54 -34 78 -25 81 20 7 14 23 -9 23 -18 0 -20 4
-15 25 5 18 2 25 -7 25 -8 0 -35 45 -62 103 -82 177 -317 700 -330 737 -8 19
-33 82 -58 140 -24 58 -63 150 -87 205 -23 55 -46 104 -51 109 -15 16 -21 -1
-9 -24 7 -12 22 -50 35 -84 35 -96 302 -712 389 -899 25 -54 46 -102 46 -107
0 -4 -9 -6 -20 -3 -21 6 -23 3 -14 -21 5 -12 9 -13 24 -3 11 6 21 9 23 7 3 -3
55 -115 117 -249 61 -134 126 -274 144 -310 19 -36 41 -84 50 -106 15 -38 15
-39 -2 -15 -236 337 -243 349 -395 670 -9 19 -21 42 -25 50 -22 38 -32 61 -32
71 0 6 -8 18 -19 27 -37 33 -368 841 -439 1072 -11 36 -41 124 -67 195 -25 72
-59 173 -75 225 -15 52 -71 229 -124 393 -92 284 -108 345 -87 332 5 -3 59
-96 119 -208z m3331 3 c-7 -35 -14 -48 -20 -39 -4 7 -10 11 -12 9 -13 -16
-121 -348 -119 -369 1 -13 -3 -30 -9 -37 -6 -7 -8 -18 -4 -24 3 -5 -6 -44 -20
-85 -14 -42 -30 -100 -36 -130 -14 -75 -256 -671 -278 -684 -6 -4 -9 -15 -5
-24 4 -12 -1 -20 -19 -26 -20 -8 -24 -16 -24 -48 1 -21 -8 -58 -20 -83 -11
-25 -37 -88 -58 -140 -20 -52 -45 -113 -55 -135 -10 -22 -42 -92 -71 -155 -43
-96 -195 -408 -282 -580 -14 -28 -28 -44 -37 -41 -55 14 -55 13 -25 -13 29
-26 29 -27 5 -20 -71 19 -98 41 -61 51 27 7 27 30 1 38 -11 3 -20 13 -20 21 0
12 4 12 20 2 10 -7 21 -10 22 -8 2 3 13 25 25 50 18 39 25 46 49 45 23 0 30 5
32 23 2 12 -2 22 -8 22 -7 0 -9 -7 -6 -16 4 -11 1 -14 -12 -12 -9 2 -16 11
-14 19 2 8 61 140 132 294 168 366 392 863 516 1144 54 123 100 218 102 212 6
-19 22 -12 22 10 0 11 -4 17 -10 14 -6 -3 -7 1 -3 10 4 12 8 13 13 5 4 -7 13
-9 19 -6 14 9 14 43 0 48 -7 2 -2 22 15 56 25 50 34 92 19 92 -5 0 -21 -32
-37 -71 -19 -45 -33 -68 -42 -65 -22 8 -40 -22 -26 -45 10 -16 9 -19 -4 -19
-11 0 -14 -5 -10 -16 9 -24 -3 -54 -21 -54 -9 0 -13 -6 -10 -14 3 -9 -2 -16
-15 -19 -17 -5 -19 -11 -14 -32 4 -17 3 -24 -3 -21 -12 8 -37 -29 -47 -69 -7
-27 -6 -29 9 -16 10 7 17 11 17 7 0 -3 -36 -84 -79 -178 -44 -95 -108 -238
-144 -318 -36 -80 -105 -233 -155 -340 -49 -107 -135 -294 -191 -415 -100
-217 -130 -273 -111 -204 13 43 12 49 0 49 -13 0 -61 -100 -54 -112 3 -4 1 -8
-3 -8 -8 0 -33 -56 -33 -73 0 -4 7 -7 15 -7 12 0 13 -4 5 -19 -19 -37 -12 -57
20 -59 40 -3 80 -19 80 -32 0 -20 -39 -88 -55 -93 -8 -4 -15 -15 -15 -26 0
-19 -207 -378 -245 -426 -9 -11 -32 -45 -50 -75 -19 -30 -35 -50 -35 -43 0 6
5 15 10 18 6 3 10 15 10 26 0 11 7 22 15 25 8 4 15 14 15 24 0 10 7 23 15 30
9 7 14 19 11 27 -3 7 -1 13 5 13 18 0 5 45 -14 48 -13 3 -17 -2 -15 -14 2 -9
-2 -19 -9 -21 -18 -6 -7 52 37 198 54 177 124 335 505 1139 112 235 157 340
147 340 -4 0 -12 -9 -17 -20 -70 -139 -135 -274 -135 -281 0 -15 -20 -10 -27
7 -4 10 0 20 10 25 9 6 13 17 10 29 -4 13 0 20 9 20 16 0 65 92 75 140 3 17
10 33 14 36 5 3 9 14 9 25 0 10 4 19 9 19 16 0 50 65 45 86 -3 11 3 28 15 41
29 31 61 89 82 152 10 29 25 59 32 65 8 6 22 36 31 66 23 76 31 87 49 71 10
-7 17 -8 21 -2 4 5 -1 14 -9 18 -14 8 -12 16 11 67 16 35 35 62 50 68 17 8 21
14 12 19 -16 10 109 259 130 259 8 0 12 6 8 15 -7 19 3 45 18 45 15 0 36 48
29 66 -3 8 1 14 11 14 10 0 16 9 16 24 0 20 145 316 156 316 2 0 -17 -57 -42
-127 -26 -71 -54 -152 -63 -181 -10 -28 -25 -58 -36 -65 -19 -15 -13 -37 10
-37 8 0 18 8 24 18 13 25 161 460 161 474 0 13 41 60 47 54 2 -2 -2 -27 -8
-56z m-862 28 c-3 -8 -6 -5 -6 6 -1 11 2 17 5 13 3 -3 4 -12 1 -19z m1623
-457 c-5 -11 -15 -23 -20 -26 -6 -3 -10 -13 -10 -20 0 -18 -105 -189 -306
-502 -82 -128 -158 -249 -170 -270 -14 -26 -27 -37 -39 -35 -14 3 -16 -1 -12
-17 3 -12 1 -21 -4 -21 -5 0 -9 -8 -9 -17 0 -22 -147 -243 -166 -250 -8 -3
-14 -13 -14 -23 0 -10 -7 -23 -15 -30 -13 -11 -14 -10 -9 4 4 11 1 16 -10 16
-16 0 -21 -16 -18 -53 2 -17 -116 -199 -137 -212 -5 -3 -12 -1 -16 5 -3 5 -1
10 4 10 6 0 11 5 11 10 0 16 -30 12 -37 -5 -3 -9 2 -21 11 -28 15 -11 14 -15
-9 -50 -22 -31 -29 -36 -45 -27 -26 14 -28 14 -45 -20 -18 -35 -5 -41 18 -7
14 20 16 20 22 4 5 -12 -11 -40 -56 -100 -35 -45 -79 -103 -98 -129 -40 -53
-63 -54 -30 -2 31 50 14 56 -27 9 -36 -43 -124 -169 -124 -179 0 -13 28 -5 34
9 19 50 97 129 96 98 0 -7 -144 -203 -296 -404 -75 -99 -102 -105 -34 -7 26
39 36 60 28 64 -7 4 -18 -3 -27 -16 -9 -13 -45 -62 -80 -110 -35 -47 -66 -92
-70 -100 -3 -8 -35 -42 -70 -75 l-64 -60 41 53 c23 30 42 58 42 62 0 5 7 16
16 25 9 9 14 19 10 22 -3 3 -17 -6 -30 -20 -29 -31 -41 -34 -54 -11 -8 14 -15
11 -45 -22 -20 -22 -37 -43 -37 -48 0 -5 -20 -34 -45 -64 -46 -55 -51 -67 -37
-76 9 -5 37 28 83 99 14 22 38 50 52 63 37 35 46 8 10 -31 -16 -18 -37 -44
-46 -58 -16 -26 -274 -371 -300 -400 -7 -8 -16 -22 -19 -31 -4 -8 -25 -29 -47
-47 l-41 -33 76 129 c78 132 120 195 108 159 -13 -36 16 -12 70 59 30 38 52
74 49 79 -4 5 -16 -2 -27 -16 -12 -13 -36 -42 -54 -64 -27 -32 -29 -34 -15 -8
18 31 246 357 282 404 27 35 39 16 13 -20 -14 -19 -18 -31 -11 -36 6 -3 14 -2
19 2 13 15 445 594 593 796 125 171 153 218 128 218 -4 0 -36 -37 -70 -82 -34
-46 -113 -153 -176 -238 -64 -85 -121 -157 -127 -159 -13 -4 1 17 122 179 173
235 305 421 308 435 2 8 -4 15 -12 15 -25 0 -19 18 20 66 30 36 39 42 55 34
16 -9 24 -3 53 37 20 27 36 51 36 56 0 17 -17 4 -42 -33 -27 -39 -48 -51 -48
-29 0 24 483 629 610 765 47 50 101 111 120 137 25 33 40 45 53 41 11 -3 17 0
17 10 0 13 135 166 147 166 2 0 -1 -9 -7 -19z m-4715 -209 c101 -99 212 -215
246 -258 34 -43 72 -89 86 -102 13 -13 34 -40 47 -60 13 -20 42 -59 65 -87 22
-27 48 -64 56 -82 9 -18 21 -36 28 -40 25 -16 92 -105 89 -119 -2 -8 3 -14 11
-14 13 0 146 -165 229 -282 18 -27 64 -87 102 -134 62 -77 68 -89 57 -107 -12
-18 -11 -19 11 -14 21 6 30 -1 56 -39 18 -24 32 -51 32 -59 0 -8 7 -15 16 -15
11 0 14 -6 9 -22 -6 -16 -4 -20 9 -15 19 8 32 -11 17 -26 -18 -18 -13 -29 9
-22 26 8 62 -31 56 -62 -2 -14 2 -23 10 -23 8 0 16 -11 20 -25 3 -14 10 -25
15 -25 5 0 9 -7 9 -15 0 -9 9 -26 21 -38 12 -12 39 -49 61 -81 28 -43 36 -61
27 -67 -18 -11 7 -39 29 -32 13 4 14 3 3 -5 -11 -8 -2 -26 46 -88 130 -172
324 -443 370 -519 90 -146 135 -235 116 -228 -26 10 -37 24 -55 68 -10 27 -22
40 -34 40 -14 0 -18 6 -16 23 2 17 -2 22 -17 22 -13 0 -21 7 -21 18 0 9 -15
27 -33 40 -19 12 -40 35 -48 50 -8 15 -20 31 -26 35 -7 4 -13 15 -13 22 0 8
-6 15 -12 15 -15 1 -68 68 -68 86 0 7 -9 16 -21 19 -17 6 -20 12 -15 36 4 23
1 31 -12 36 -28 10 -52 35 -52 55 0 10 -7 18 -15 18 -8 0 -15 8 -15 19 0 10
-9 21 -20 24 -11 3 -20 13 -20 23 0 9 -7 25 -16 35 -12 14 -13 22 -4 39 15 28
9 33 -18 14 -21 -14 -21 -17 -7 -50 14 -35 36 -67 115 -170 25 -33 50 -71 56
-85 7 -15 59 -85 117 -156 58 -72 110 -140 117 -153 22 -41 4 -30 -36 23 -21
28 -100 115 -174 192 -163 168 -308 350 -501 625 -186 267 -228 323 -245 333
-8 4 -14 17 -14 28 0 11 -7 22 -15 25 -8 4 -15 13 -15 20 0 8 -7 17 -15 20 -8
4 -15 11 -15 18 0 6 -9 17 -20 24 -11 7 -20 21 -20 31 0 11 -4 21 -8 23 -4 2
-20 25 -36 51 -15 27 -34 51 -42 54 -8 3 -21 18 -29 33 -8 16 -20 34 -27 42
-7 7 -19 24 -25 38 -20 41 -139 218 -283 421 -74 105 -149 211 -166 235 -18
25 -41 55 -53 68 -12 12 -21 25 -21 29 0 4 -20 32 -44 61 -64 79 -196 322
-196 361 0 13 24 -9 195 -173z m1689 -97 c-4 -8 -8 -15 -10 -15 -2 0 -4 7 -4
15 0 8 4 15 10 15 5 0 7 -7 4 -15z m1059 -220 c-7 -21 -13 -19 -13 6 0 11 4
18 10 14 5 -3 7 -12 3 -20z m2405 -247 c-29 -29 -118 -122 -198 -207 -80 -85
-227 -238 -327 -341 -101 -102 -183 -192 -183 -200 0 -8 28 12 63 45 l62 60
-60 -63 c-38 -40 -65 -60 -75 -57 -9 4 -53 -34 -130 -112 -64 -65 -170 -171
-236 -235 -69 -67 -117 -121 -112 -126 5 -5 -7 -23 -29 -42 -21 -18 -139 -126
-263 -240 -307 -282 -502 -451 -545 -472 l-20 -9 20 16 c77 60 265 232 265
243 0 20 -10 15 -76 -44 -35 -30 -68 -53 -74 -49 -6 4 -39 -19 -74 -50 -38
-32 -67 -52 -71 -45 -7 12 2 30 16 30 6 0 20 11 33 25 13 14 28 25 35 25 6 0
10 10 8 23 -1 17 2 21 17 19 14 -3 17 1 13 12 -9 23 2 20 22 -6 10 -12 23 -18
29 -14 17 10 15 29 -3 23 -17 -7 -30 9 -15 18 6 4 8 11 4 16 -3 5 -2 8 3 7 15
-4 53 23 53 38 0 8 11 19 25 24 14 5 24 15 23 22 -2 7 7 14 20 16 13 2 27 13
31 25 10 24 139 135 148 127 3 -3 9 5 14 16 4 12 21 27 37 35 16 7 33 21 38
32 5 11 14 20 19 19 18 0 45 18 45 32 0 15 129 126 146 126 7 0 14 6 16 14 2
8 77 79 168 159 156 136 241 216 266 248 6 8 144 144 307 303 267 261 320 316
274 289 -17 -10 -252 -229 -352 -328 -39 -38 -67 -66 -63 -60 31 37 -33 27
-74 -12 -15 -14 -25 -29 -23 -33 2 -4 -21 -31 -51 -61 -41 -41 -57 -51 -63
-40 -6 9 -11 10 -15 2 -4 -6 -1 -11 6 -11 7 0 -19 -31 -57 -70 -38 -38 -74
-70 -79 -70 -6 0 16 27 49 60 33 33 56 60 52 60 -7 0 -314 -264 -826 -710
-268 -233 -457 -396 -486 -419 -11 -9 3 9 30 39 28 30 67 66 87 80 20 14 83
68 140 121 57 53 137 124 178 158 188 158 341 296 331 299 -7 2 -40 -20 -74
-50 -141 -123 -199 -169 -205 -163 -4 4 7 19 24 33 183 156 444 384 449 392
21 33 -34 -6 -163 -117 -81 -69 -155 -133 -164 -141 -10 -8 -18 -12 -18 -9 0
6 364 329 471 418 36 29 135 113 220 185 149 127 424 344 434 344 3 0 13 7 23
16 68 63 515 364 540 364 2 0 -20 -24 -50 -52z m-3361 -10 c-3 -8 -6 -5 -6 6
-1 11 2 17 5 13 3 -3 4 -12 1 -19z m10 -40 c-3 -8 -6 -5 -6 6 -1 11 2 17 5 13
3 -3 4 -12 1 -19z m-2133 -145 c157 -100 318 -214 311 -221 -2 -2 -17 6 -34
19 -17 12 -33 20 -36 17 -7 -7 153 -138 168 -138 7 0 -8 18 -33 41 -63 56 -30
37 60 -35 142 -114 612 -528 648 -571 7 -8 10 -20 6 -27 -5 -8 -2 -9 10 -5 19
8 106 -66 106 -89 0 -8 9 -14 19 -14 10 0 33 -16 50 -35 17 -19 33 -35 37 -35
5 0 194 -172 284 -260 20 -19 65 -60 99 -90 34 -30 90 -89 124 -130 l61 -75
-53 49 c-29 26 -55 45 -59 41 -8 -8 110 -115 121 -108 4 2 7 -3 7 -12 0 -8 10
-20 23 -25 19 -7 185 -172 212 -211 6 -8 32 -40 58 -72 29 -34 41 -54 30 -50
-20 7 -153 140 -153 153 0 5 -9 12 -20 15 -11 3 -20 12 -20 18 0 7 -10 17 -22
22 -13 6 -23 17 -24 25 -2 30 -4 35 -12 23 -11 -17 -112 72 -112 98 0 11 -4
18 -9 15 -19 -12 -42 6 -35 27 5 17 3 19 -15 14 -12 -3 -24 0 -29 7 -4 6 -19
19 -34 29 -16 10 -28 24 -28 33 0 8 -4 13 -8 10 -10 -6 -62 40 -62 54 0 6 -6
10 -13 10 -18 0 -59 45 -50 54 5 4 1 6 -7 4 -8 -1 -14 2 -15 9 0 6 -10 21 -22
33 -13 11 -23 26 -23 31 0 6 -7 9 -15 5 -9 -3 -15 0 -15 10 0 11 -6 14 -16 10
-8 -3 -12 -2 -9 4 3 5 -2 21 -11 35 -12 18 -22 23 -38 19 -15 -3 -27 1 -36 13
-12 15 -12 16 0 6 19 -17 30 -16 30 1 0 17 -54 59 -63 49 -4 -3 -2 -14 4 -25
12 -22 -192 159 -691 612 -600 546 -705 638 -716 628 -5 -6 125 -138 135 -138
11 0 168 -155 174 -172 4 -10 16 -18 28 -18 12 0 20 -2 17 -5 -10 -10 85 -105
104 -105 10 0 18 -7 18 -15 0 -8 6 -15 13 -15 15 -1 82 -62 90 -84 4 -9 12
-16 19 -16 7 0 18 -10 23 -22 6 -13 20 -24 33 -26 12 -2 22 -10 22 -18 0 -8 7
-14 15 -14 9 0 18 -7 21 -15 4 -8 11 -15 16 -15 6 0 35 -25 64 -55 30 -30 59
-55 64 -55 6 0 10 -9 10 -19 0 -13 8 -21 23 -23 12 -2 22 -9 22 -15 0 -7 4
-13 10 -12 5 0 13 -9 17 -21 4 -12 17 -24 27 -27 11 -3 21 -14 24 -24 3 -11 9
-19 14 -18 16 4 43 -13 43 -28 0 -8 14 -19 30 -24 17 -6 30 -18 30 -26 0 -8 9
-17 20 -20 11 -3 20 -12 20 -19 0 -8 6 -14 14 -14 8 0 13 -8 12 -17 0 -10 5
-18 12 -19 6 -1 18 -2 25 -3 8 0 41 -26 75 -57 46 -41 62 -62 62 -82 0 -20 3
-23 12 -14 16 16 28 15 28 -2 0 -8 10 -16 23 -18 18 -2 22 -8 19 -36 -2 -30
12 -45 20 -20 3 7 12 9 22 5 12 -5 15 -13 11 -27 -7 -21 4 -27 21 -11 5 6 17
3 29 -7 27 -22 39 -52 21 -52 -8 0 -17 7 -20 16 -3 8 -11 12 -16 9 -8 -5 -7
-11 1 -21 6 -7 9 -21 5 -29 -8 -21 7 -19 39 7 l28 22 -7 -30 c-7 -27 -6 -28 9
-13 16 16 19 15 36 -2 10 -10 19 -22 19 -25 0 -9 24 -30 45 -39 18 -7 18 -9 3
-12 -10 -3 -18 -9 -18 -15 0 -6 10 -8 23 -5 13 4 31 -1 45 -13 27 -23 28 -32
2 -48 -26 -16 -46 -6 -29 14 17 21 1 31 -18 11 -16 -15 -15 -18 2 -39 l19 -23
-24 22 c-13 13 -25 32 -25 43 0 11 -4 19 -10 17 -5 -1 -9 -8 -9 -15 2 -10 -1
-10 -12 -1 -8 6 -11 15 -8 20 3 5 0 8 -8 7 -7 -2 -12 3 -10 10 1 7 -4 12 -11
10 -13 -3 -467 405 -467 419 0 4 14 -6 30 -22 18 -17 30 -23 30 -15 0 7 -15
26 -32 42 -18 16 -55 50 -83 76 -59 57 -289 270 -465 432 -69 63 -166 153
-216 200 -184 173 -415 375 -430 375 -8 0 -24 11 -34 25 -15 19 -16 28 -7 39
10 12 9 14 -4 9 -18 -7 -74 43 -63 55 4 4 1 13 -6 22 -25 30 59 -14 214 -112z
m-17 -127 c18 -16 30 -32 28 -36 -3 -4 5 -16 16 -26 12 -11 22 -17 24 -14 2 3
21 -10 44 -28 23 -18 39 -37 36 -42 -8 -13 34 -52 47 -44 6 4 8 3 5 -4 -7 -10
88 -97 107 -97 6 0 11 -5 11 -12 0 -22 58 -76 71 -65 4 4 4 2 1 -4 -3 -6 14
-30 38 -54 25 -24 45 -49 45 -55 0 -5 14 -17 30 -25 36 -18 290 -259 290 -275
0 -17 159 -165 176 -165 8 0 13 -4 10 -9 -3 -4 3 -16 14 -26 11 -10 17 -22 14
-27 -3 -4 0 -7 8 -6 7 2 12 -4 10 -12 -2 -8 0 -12 4 -8 4 4 21 -4 38 -17 52
-42 66 -57 59 -68 -3 -6 -1 -7 4 -4 6 4 18 -2 28 -13 13 -14 14 -20 5 -20 -22
0 -2 -13 22 -14 16 -1 22 -7 20 -19 -2 -13 2 -17 15 -15 10 2 18 -3 19 -12 2
-31 5 -35 14 -20 8 13 11 11 16 -7 3 -12 11 -20 18 -17 7 3 23 -8 36 -23 22
-25 22 -26 3 -9 -31 26 -29 5 1 -23 14 -13 30 -20 36 -16 14 9 92 -64 83 -78
-3 -6 -1 -7 5 -3 7 4 31 -11 57 -35 25 -23 45 -35 45 -28 0 8 11 2 25 -14 14
-15 30 -27 36 -27 6 0 7 -5 4 -10 -4 -6 7 -15 24 -21 17 -6 31 -17 31 -25 0
-8 9 -14 20 -14 11 0 20 -4 20 -10 0 -5 -7 -10 -15 -10 -20 0 -137 75 -129 83
9 9 -37 46 -58 47 -12 0 -15 5 -11 17 5 13 2 15 -11 10 -12 -5 -55 27 -159
120 -213 190 -417 376 -417 379 0 2 8 1 18 -3 20 -7 -16 29 -293 289 -116 108
-268 254 -340 323 -71 69 -141 132 -154 138 -13 7 -29 21 -35 32 -6 10 -19 26
-29 35 -9 8 -32 36 -50 62 -17 26 -52 71 -77 100 -44 53 -32 47 47 -26z m4023
-156 c0 -15 -23 -54 -37 -63 -7 -4 -13 -15 -13 -23 0 -8 -11 -24 -25 -36 -14
-12 -25 -28 -25 -35 0 -7 -6 -13 -14 -13 -7 0 -16 -13 -19 -29 -4 -19 -16 -34
-34 -43 -15 -7 -29 -22 -31 -33 -2 -11 -17 -33 -33 -49 -16 -15 -29 -35 -29
-42 0 -8 -7 -14 -16 -14 -8 0 -12 -4 -9 -10 3 -5 -4 -10 -16 -10 -16 0 -19 3
-12 13 5 6 38 53 73 102 36 50 76 104 90 121 14 17 50 63 80 102 53 68 70 83
70 62z m-1741 -106 c15 -83 9 -94 -8 -17 -7 32 -15 66 -18 77 -3 11 -1 16 5
12 5 -3 15 -36 21 -72z m1069 -69 c-12 -24 -23 -43 -26 -41 -4 5 36 86 43 86
3 0 -5 -20 -17 -45z m1366 -66 c-138 -142 -245 -244 -270 -259 -13 -8 -24 -18
-24 -21 0 -8 -185 -169 -194 -169 -20 0 7 29 107 115 61 54 188 169 280 256
92 88 171 159 174 159 4 0 -29 -36 -73 -81z m-2417 29 c-3 -8 -6 -5 -6 6 -1
11 2 17 5 13 3 -3 4 -12 1 -19z m-1962 -38 c21 -22 37 -40 34 -40 -3 0 -23 18
-44 40 -21 22 -37 40 -34 40 3 0 23 -18 44 -40z m110 -10 c21 -22 37 -40 34
-40 -3 0 -23 18 -44 40 -21 22 -37 40 -34 40 3 0 23 -18 44 -40z m1862 8 c-3
-8 -6 -5 -6 6 -1 11 2 17 5 13 3 -3 4 -12 1 -19z m3493 -178 c-25 -22 -55 -43
-67 -46 -12 -3 -24 -12 -27 -20 -3 -8 -14 -14 -23 -12 -12 2 -17 -3 -15 -14 1
-10 -12 -25 -35 -39 -21 -13 -94 -62 -163 -110 -110 -76 -570 -358 -657 -403
-18 -9 -39 -16 -48 -16 -28 0 -16 18 25 37 42 19 55 39 18 27 -66 -20 -96 -51
-67 -69 10 -7 -72 -65 -91 -65 -28 0 11 43 49 55 12 3 21 11 21 16 0 17 -27 9
-53 -15 -14 -13 -28 -22 -31 -19 -5 5 -256 -123 -459 -234 -65 -36 -121 -63
-123 -60 -3 3 5 11 18 19 12 7 32 19 43 26 11 6 54 30 95 52 235 125 294 158
298 169 8 25 -38 7 -182 -70 -239 -129 -475 -258 -546 -299 -36 -20 -104 -58
-152 -84 -101 -55 -122 -87 -34 -51 13 6 17 4 14 -5 -6 -20 -418 -232 -418
-215 0 2 25 18 55 35 30 17 55 36 55 41 0 15 -16 9 -88 -31 -44 -24 -61 -40
-59 -51 3 -12 -31 -32 -146 -83 -83 -36 -152 -64 -155 -61 -3 2 4 8 14 12 26
9 74 45 74 55 0 15 -19 8 -70 -23 -28 -17 -53 -30 -55 -27 -2 2 31 24 73 50
42 25 80 42 83 37 7 -11 39 4 209 101 213 122 289 161 294 151 8 -13 -22 -37
-94 -74 -61 -31 -87 -57 -58 -57 7 0 29 10 48 22 19 11 60 35 90 51 30 16 56
31 58 33 2 1 -2 11 -9 22 -10 17 -10 23 0 36 33 39 -35 9 -238 -105 -119 -67
-231 -133 -249 -146 -18 -14 -35 -23 -38 -20 -5 5 283 197 296 197 4 0 10 7
14 15 3 8 14 15 25 15 11 0 33 13 49 30 17 16 32 25 34 20 4 -12 88 40 88 53
0 5 -10 7 -22 4 -22 -6 -22 -6 -4 8 24 18 43 19 49 3 3 -9 23 -3 68 20 136 69
159 83 159 97 0 16 -16 21 -22 6 -5 -14 -100 -52 -95 -38 5 15 446 261 454
253 10 -10 -16 -32 -67 -56 -50 -23 -64 -40 -35 -40 18 0 103 42 157 78 39 25
52 50 21 37 -32 -13 -63 -18 -63 -9 0 5 19 18 43 30 23 11 79 42 124 68 79 45
111 51 99 20 -3 -8 -1 -14 3 -14 18 0 41 12 41 22 0 6 -7 8 -15 4 -25 -9 -17
22 11 40 24 16 26 16 40 -5 13 -17 19 -20 30 -10 22 18 17 31 -8 23 -21 -6
-22 -5 -8 10 21 26 194 110 198 97 6 -17 42 -13 42 4 0 8 -6 15 -12 15 -9 0
-8 4 2 10 8 5 23 7 33 4 11 -3 17 0 17 9 0 18 215 119 258 120 19 1 32 6 32
14 0 8 8 16 18 20 20 7 53 21 262 116 261 117 449 197 464 197 7 0 27 7 42 15
44 23 43 18 -6 -25z m-6177 -45 c171 -71 236 -102 347 -165 41 -23 89 -44 105
-45 67 -6 704 -302 1020 -474 135 -73 179 -102 177 -115 -2 -13 2 -15 21 -11
18 5 29 1 39 -14 8 -12 17 -18 21 -15 5 5 197 -104 217 -123 2 -2 -2 -8 -10
-14 -13 -8 -13 -10 0 -19 11 -7 16 -5 18 5 5 23 14 19 81 -35 34 -27 92 -70
129 -96 37 -26 76 -57 87 -70 11 -13 52 -40 91 -61 81 -43 294 -173 294 -180
0 -5 -56 24 -123 65 -48 29 -62 34 -77 24 -20 -12 -30 -7 -30 19 0 27 -19 33
-36 13 -14 -18 -14 -18 -7 0 5 16 3 18 -15 14 -13 -4 -20 -2 -16 3 3 6 3 17 0
26 -5 12 -9 13 -20 4 -10 -9 -16 -9 -21 -1 -5 8 -11 8 -21 -1 -11 -9 -14 -9
-14 1 0 7 8 19 18 27 15 13 14 14 -13 9 -16 -2 -39 -8 -49 -12 -16 -6 -18 -4
-13 9 6 16 -4 22 -27 18 -21 -4 -46 12 -46 30 0 11 5 17 10 14 6 -3 10 -1 10
4 0 16 -16 13 -35 -5 -14 -14 -20 -15 -41 -4 -13 8 -24 20 -24 28 0 8 -6 12
-14 9 -7 -3 -41 8 -74 24 -34 16 -66 29 -72 29 -5 0 -7 7 -4 15 8 19 29 14
107 -27 32 -16 61 -27 64 -24 10 10 -16 33 -59 51 -66 28 -101 44 -120 58 -15
10 -20 8 -33 -11 -18 -25 -35 -29 -35 -7 0 9 -6 12 -15 9 -13 -5 -516 249
-650 329 -157 93 -371 207 -384 205 -10 -2 1 -13 29 -30 146 -86 564 -314 718
-392 62 -32 112 -61 112 -66 0 -5 -9 -12 -20 -15 -11 -4 -18 -11 -15 -16 10
-15 35 -10 35 6 0 8 6 15 14 15 12 0 666 -318 871 -423 33 -17 71 -36 84 -42
77 -34 254 -124 244 -125 -17 0 -258 95 -316 125 -46 25 -169 73 -352 140 -96
35 -504 220 -519 236 -6 5 -18 9 -27 9 -9 0 -22 7 -29 15 -7 8 -21 15 -32 15
-11 0 -34 12 -53 26 -18 14 -40 24 -47 22 -50 -11 -758 417 -1128 682 -36 26
-158 113 -272 194 -200 142 -242 176 -220 176 5 0 80 -29 165 -65z m4076 25
c-22 -28 -39 -31 -39 -6 0 18 21 36 42 36 17 0 17 -2 -3 -30z m-3143 -12 l29
-33 -32 29 c-31 28 -38 36 -30 36 2 0 16 -15 33 -32z m3863 -1 c-43 -32 -120
-98 -176 -151 -35 -33 -65 -57 -68 -54 -3 2 52 55 122 116 70 61 130 109 133
106 3 -3 -2 -11 -11 -17z m-774 -58 c-15 -27 -45 -41 -45 -19 0 6 5 10 10 10
6 0 10 6 10 13 0 17 21 38 32 31 4 -3 1 -18 -7 -35z m-45 -59 c0 -5 -4 -10
-10 -10 -5 0 -10 5 -10 10 0 6 5 10 10 10 6 0 10 -4 10 -10z m-2864 -52 l29
-33 -32 29 c-18 17 -33 31 -33 33 0 8 8 1 36 -29z m2834 22 c0 -5 -2 -10 -4
-10 -3 0 -8 5 -11 10 -3 6 -1 10 4 10 6 0 11 -4 11 -10z m18 -72 c-18 -22 -40
-50 -48 -62 -8 -13 -28 -42 -45 -66 -16 -23 -37 -52 -45 -64 -39 -56 -68 -87
-73 -79 -11 18 219 327 236 316 4 -2 -7 -23 -25 -45z m-1121 -45 c-3 -10 -5
-4 -5 12 0 17 2 24 5 18 2 -7 2 -21 0 -30z m1630 -11 c-117 -107 -215 -192
-223 -192 -5 0 0 7 11 16 11 8 42 36 69 62 66 64 179 161 188 162 4 0 -17 -22
-45 -48z m113 38 c0 -5 -4 -10 -9 -10 -10 0 -46 -30 -155 -129 -39 -36 -92
-80 -119 -99 -26 -19 -50 -39 -55 -46 -4 -6 -36 -36 -72 -66 -36 -30 -85 -74
-110 -97 -139 -129 -611 -543 -618 -543 -5 0 -21 -9 -36 -21 -59 -46 -19 3 90
111 63 63 112 107 108 98 -3 -10 -3 -18 2 -18 15 0 54 44 54 61 0 13 5 16 16
12 11 -4 15 -1 12 13 -2 14 2 18 17 16 24 -3 61 33 67 63 2 12 13 21 26 23 15
2 22 9 18 17 -2 7 6 21 19 29 13 9 54 43 90 77 36 34 65 56 65 50 0 -6 3 -11
8 -11 4 0 131 108 282 240 151 131 281 239 288 240 6 0 12 -4 12 -10z m-3360
-35 c13 -14 21 -25 18 -25 -2 0 -15 11 -28 25 -13 14 -21 25 -18 25 2 0 15
-11 28 -25z m170 -50 c30 -30 52 -55 49 -55 -2 0 -29 25 -59 55 -30 30 -52 55
-49 55 2 0 29 -25 59 -55z m2131 -18 c-10 -9 -11 -8 -5 6 3 10 9 15 12 12 3
-3 0 -11 -7 -18z m688 -20 c-2 -2 -26 -23 -54 -47 l-50 -44 45 47 c24 26 48
47 54 47 5 0 7 -1 5 -3z m-119 -100 c0 -2 -15 -16 -32 -33 l-33 -29 29 33 c28
30 36 37 36 29z m-360 -56 c0 -20 -43 -71 -60 -71 -6 0 3 20 21 45 18 25 34
45 36 45 2 0 3 -8 3 -19z m360 11 c0 -9 -135 -132 -261 -237 -131 -109 -45
-18 115 123 77 67 141 122 143 122 2 0 3 -4 3 -8z m90 -27 c-13 -14 -26 -22
-29 -19 -3 3 5 14 18 25 33 27 39 24 11 -6z m-106 -90 c-4 -8 -11 -15 -16 -15
-6 0 -5 6 2 15 7 8 14 15 16 15 2 0 1 -7 -2 -15z m-841 -45 c-4 -16 -8 -18
-19 -9 -20 16 -17 29 5 29 14 0 18 -5 14 -20z m1767 -39 c0 -4 -19 -18 -42
-32 -23 -13 -62 -36 -87 -51 -53 -32 -238 -128 -246 -128 -3 0 -5 7 -5 16 0 8
5 12 10 9 6 -3 10 1 10 9 0 14 19 21 36 14 3 -2 10 5 15 15 6 10 22 17 38 17
20 0 31 7 39 25 8 17 20 25 36 25 13 0 27 7 30 16 3 8 10 13 15 10 4 -3 18 3
31 14 12 10 27 17 35 14 7 -3 15 2 18 10 4 9 13 16 22 16 8 0 15 4 15 10 0 5
7 7 15 4 8 -4 15 -9 15 -13z m-1800 -41 c-6 -11 -13 -20 -16 -20 -2 0 0 9 6
20 6 11 13 20 16 20 2 0 0 -9 -6 -20z m-1086 -126 c9 -3 16 -12 16 -20 0 -8 3
-14 8 -14 4 0 21 -12 37 -26 17 -14 52 -44 79 -67 58 -49 146 -139 146 -149 0
-5 6 -8 13 -8 6 0 30 -21 52 -47 22 -26 58 -65 80 -86 22 -22 -6 -2 -62 43
-96 77 -199 167 -160 140 9 -7 17 -8 17 -3 0 5 -40 44 -90 87 -49 43 -90 82
-90 87 0 5 -6 9 -14 9 -7 0 -19 7 -26 15 -7 8 -17 15 -24 15 -6 0 8 -18 32
-40 40 -38 52 -60 33 -60 -5 0 -11 10 -14 22 -5 17 -9 19 -21 9 -10 -9 -16 -9
-21 -1 -4 6 -4 14 -1 17 3 4 -4 17 -15 29 -18 19 -20 26 -9 39 14 17 13 17 34
9z m-46 -54 c7 -11 11 -20 9 -20 -2 0 -12 9 -22 20 -10 11 -14 20 -9 20 5 0
15 -9 22 -20z m2532 5 c0 -22 -40 -41 -51 -24 -5 9 -1 18 14 26 29 16 37 16
37 -2z m-65 -35 c3 -5 -6 -12 -20 -16 -14 -3 -25 -10 -25 -16 0 -5 -4 -6 -10
-3 -17 10 -11 25 13 35 29 12 35 12 42 0z m-135 -9 c0 -11 -42 -36 -187 -113
-68 -35 -113 -53 -113 -46 0 7 21 22 46 33 25 11 50 26 56 33 6 6 18 12 28 12
10 0 23 7 30 15 7 8 20 15 29 15 9 1 34 14 56 30 42 31 55 36 55 21z m-520 -4
c0 -2 -10 -12 -22 -23 l-23 -19 19 23 c18 21 26 27 26 19z m-102 -23 c15 -15
13 -19 -18 -44 -26 -22 -39 -26 -52 -19 -19 10 -24 -1 -8 -17 7 -7 -29 -42
-112 -110 -172 -140 -288 -225 -288 -210 0 8 167 146 177 146 5 0 35 25 67 55
31 30 62 55 68 55 5 0 7 7 4 16 -5 12 -1 14 16 8 17 -5 20 -3 15 10 -5 12 11
33 51 71 31 30 58 55 60 55 2 0 11 -7 20 -16z m672 -4 c0 -5 -2 -10 -4 -10 -3
0 -8 5 -11 10 -3 6 -1 10 4 10 6 0 11 -4 11 -10z m-2285 -42 c43 -32 62 -59
28 -39 -27 16 -89 70 -80 71 4 0 28 -15 52 -32z m86 -11 c25 -23 38 -36 29
-29 -23 17 -33 15 -26 -5 6 -15 4 -14 -14 2 -13 12 -17 21 -10 25 16 10 -14
32 -34 24 -16 -6 -22 7 -9 19 11 11 16 8 64 -36z m2174 33 c3 -5 1 -10 -4 -10
-6 0 -11 5 -11 10 0 6 2 10 4 10 3 0 8 -4 11 -10z m-1285 -96 c-11 -38 -29
-94 -40 -124 l-20 -55 6 45 c6 45 63 214 70 207 2 -2 -5 -34 -16 -73z m-1276
41 c-4 -8 -10 -13 -15 -10 -4 3 -6 12 -3 20 4 8 10 13 15 10 4 -3 6 -12 3 -20z
m2056 10 c-33 -19 -50 -18 -26 0 11 8 27 15 35 15 10 -1 7 -6 -9 -15z m-1639
-72 l24 -27 -32 23 c-33 23 -40 31 -25 31 5 0 19 -12 33 -27z m310 -25 l22
-33 -31 29 c-34 32 -37 36 -23 36 5 0 20 -15 32 -32z m1489 14 c0 -10 -71 -45
-78 -38 -8 8 41 45 61 46 9 0 17 -4 17 -8z m-1745 -12 c3 -5 -1 -10 -10 -10
-9 0 -13 5 -10 10 3 6 8 10 10 10 2 0 7 -4 10 -10z m41 -37 c-7 -7 -26 7 -26
19 0 6 6 6 15 -2 9 -7 13 -15 11 -17z m284 -38 c0 -7 6 -15 14 -18 15 -6 125
-147 146 -187 10 -20 4 -17 -30 15 -53 50 -171 206 -163 217 6 11 33 -11 33
-27z m486 -32 c-14 -26 -25 -45 -26 -41 0 12 43 98 48 94 2 -2 -8 -26 -22 -53z
m-432 22 c3 -8 1 -15 -4 -15 -6 0 -10 7 -10 15 0 8 2 15 4 15 2 0 6 -7 10 -15z
m203 -47 c-3 -7 -5 -2 -5 12 0 14 2 19 5 13 2 -7 2 -19 0 -25z m-137 -8 c6
-11 8 -20 6 -20 -3 0 -10 9 -16 20 -6 11 -8 20 -6 20 3 0 10 -9 16 -20z m-140
-31 c0 -6 -4 -7 -10 -4 -5 3 -10 11 -10 16 0 6 5 7 10 4 6 -3 10 -11 10 -16z
m180 -35 c12 -19 20 -37 18 -39 -2 -3 -15 13 -27 35 -28 50 -21 53 9 4z m107
14 c-3 -8 -6 -5 -6 6 -1 11 2 17 5 13 3 -3 4 -12 1 -19z m313 2 c-6 -11 -13
-20 -16 -20 -2 0 0 9 6 20 6 11 13 20 16 20 2 0 0 -9 -6 -20z m-38 -47 c-6
-10 -25 -31 -43 -48 -32 -30 -27 -20 20 43 26 33 40 37 23 5z m-265 -15 c-3
-8 -6 -5 -6 6 -1 11 2 17 5 13 3 -3 4 -12 1 -19z"/>
<path d="M3440 6130 c-11 -27 -32 -457 -23 -470 2 -2 8 2 13 10 6 10 10 -39
10 -137 0 -111 -3 -153 -12 -157 -10 -5 -10 -7 0 -12 8 -4 12 -33 10 -102 -1
-79 -2 -87 -8 -47 l-6 50 -8 -38 c-6 -27 -4 -46 8 -71 11 -24 16 -59 15 -123
-1 -48 -4 -78 -6 -65 -6 30 -21 28 -29 -5 -5 -19 -2 -30 12 -40 15 -11 16 -15
5 -22 -15 -10 -26 -162 -16 -218 12 -66 25 -30 27 75 l2 107 4 -90 c4 -114 -3
-156 -25 -148 -11 4 -14 2 -11 -8 3 -8 11 -13 17 -12 6 2 11 -4 11 -12 0 -8
-7 -15 -16 -15 -9 0 -14 -6 -11 -12 2 -7 10 -12 16 -11 6 2 11 -4 11 -12 0 -8
-6 -12 -14 -9 -20 8 -29 -28 -21 -87 7 -48 18 -62 29 -36 2 6 5 -15 5 -48 1
-33 3 -78 5 -100 3 -22 5 -43 5 -47 1 -12 49 -9 57 3 3 6 1 15 -7 20 -17 10
-15 229 3 240 9 6 8 12 -1 23 -10 12 -11 19 -2 30 9 10 9 16 1 21 -6 4 -9 13
-6 21 3 7 1 16 -3 19 -13 8 -4 315 10 331 9 12 8 17 -4 27 -14 11 -16 74 -18
605 -2 326 -6 595 -10 597 -4 3 -12 -9 -19 -25z m7 -332 c-2 -13 -4 -5 -4 17
-1 22 1 32 4 23 2 -10 2 -28 0 -40z m-8 -1290 c-1 -7 -5 -24 -9 -38 -7 -22 -8
-21 -9 13 -1 20 4 37 9 37 6 0 10 -6 9 -12z"/>
<path d="M3405 5520 c3 -5 11 -10 16 -10 6 0 7 5 4 10 -3 6 -11 10 -16 10 -6
0 -7 -4 -4 -10z"/>
<path d="M3410 5470 c0 -5 5 -10 10 -10 6 0 10 5 10 10 0 6 -4 10 -10 10 -5 0
-10 -4 -10 -10z"/>
<path d="M3395 5430 c-8 -13 9 -20 24 -11 10 6 9 10 -3 14 -8 3 -18 2 -21 -3z"/>
<path d="M3390 5350 c0 -5 5 -10 10 -10 6 0 10 5 10 10 0 6 -4 10 -10 10 -5 0
-10 -4 -10 -10z"/>
<path d="M3497 5153 c-11 -10 -8 -43 3 -43 6 0 10 11 10 25 0 26 -2 29 -13 18z"/>
<path d="M3403 5089 c-10 -26 -10 -30 5 -27 10 2 18 15 20 31 4 36 -11 34 -25
-4z"/>
<path d="M3490 5040 c0 -5 5 -10 10 -10 6 0 10 5 10 10 0 6 -4 10 -10 10 -5 0
-10 -4 -10 -10z"/>
<path d="M3410 5025 c0 -8 5 -15 10 -15 6 0 10 7 10 15 0 8 -4 15 -10 15 -5 0
-10 -7 -10 -15z"/>
<path d="M3390 4339 c0 -11 5 -17 10 -14 6 3 10 13 10 21 0 8 -4 14 -10 14 -5
0 -10 -9 -10 -21z"/>
<path d="M3395 4291 c-6 -11 9 -23 19 -14 9 9 7 23 -3 23 -6 0 -12 -4 -16 -9z"/>
<path d="M3395 4250 c3 -5 10 -10 16 -10 5 0 9 5 9 10 0 6 -7 10 -16 10 -8 0
-12 -4 -9 -10z"/>
<path d="M3520 4180 c0 -5 5 -10 10 -10 6 0 10 5 10 10 0 6 -4 10 -10 10 -5 0
-10 -4 -10 -10z"/>
<path d="M3490 3790 c0 -5 5 -10 10 -10 6 0 10 5 10 10 0 6 -4 10 -10 10 -5 0
-10 -4 -10 -10z"/>
<path d="M3405 3737 c-4 -10 -5 -21 -1 -24 10 -10 18 4 13 24 -4 17 -4 17 -12
0z"/>
<path d="M3446 3598 c-8 -44 -1 -121 12 -125 8 -3 12 6 12 24 0 16 5 34 11 40
8 8 8 13 0 17 -6 4 -11 20 -11 37 0 34 -18 39 -24 7z"/>
<path d="M3490 3499 c0 -5 5 -7 10 -4 6 3 10 8 10 11 0 2 -4 4 -10 4 -5 0 -10
-5 -10 -11z"/>
<path d="M4247 5333 c-11 -10 -8 -73 3 -73 6 0 10 18 10 40 0 41 -2 45 -13 33z"/>
<path d="M4195 5278 c-7 -22 -25 -118 -25 -133 0 -27 19 -15 29 18 15 51 12 8
-4 -58 -8 -33 -15 -73 -15 -88 0 -43 22 -27 27 18 2 22 12 75 24 118 21 80 16
126 -8 72 -13 -29 -13 -28 -7 18 4 32 3 47 -5 47 -6 0 -13 -6 -16 -12z"/>
<path d="M4150 5050 c0 -5 5 -10 10 -10 6 0 10 5 10 10 0 6 -4 10 -10 10 -5 0
-10 -4 -10 -10z"/>
<path d="M4135 5009 c-4 -6 -5 -13 -2 -16 7 -7 27 6 27 18 0 12 -17 12 -25 -2z"/>
<path d="M4166 4965 c-11 -29 -6 -55 9 -55 9 0 15 9 15 25 0 14 0 28 1 32 1
15 -19 13 -25 -2z"/>
<path d="M4145 4867 c-8 -19 -2 -31 13 -26 5 2 6 13 2 24 -7 19 -8 19 -15 2z"/>
<path d="M4127 4753 c-11 -10 -8 -73 3 -73 6 0 10 18 10 40 0 41 -2 45 -13 33z"/>
<path d="M4043 4738 c-18 -22 -26 -71 -11 -66 7 3 16 20 19 39 8 38 6 45 -8
27z"/>
<path d="M4066 4653 c-3 -3 -6 -22 -6 -41 0 -41 7 -38 20 7 8 29 1 48 -14 34z"/>
<path d="M4000 4590 c0 -5 5 -10 10 -10 6 0 10 5 10 10 0 6 -4 10 -10 10 -5 0
-10 -4 -10 -10z"/>
<path d="M4090 4526 c0 -9 5 -16 10 -16 6 0 10 4 10 9 0 6 -4 13 -10 16 -5 3
-10 -1 -10 -9z"/>
<path d="M3981 4503 c-7 -18 -10 -41 -6 -50 6 -17 7 -17 16 0 6 9 9 32 7 50
l-3 32 -14 -32z"/>
<path d="M4036 4494 c-4 -10 -1 -14 6 -12 15 5 23 28 10 28 -5 0 -13 -7 -16
-16z"/>
<path d="M4075 4420 c-3 -5 -1 -10 4 -10 6 0 11 5 11 10 0 6 -2 10 -4 10 -3 0
-8 -4 -11 -10z"/>
<path d="M3960 4410 c0 -5 5 -10 10 -10 6 0 10 5 10 10 0 6 -4 10 -10 10 -5 0
-10 -4 -10 -10z"/>
<path d="M3955 4369 c-10 -15 3 -25 16 -12 7 7 7 13 1 17 -6 3 -14 1 -17 -5z"/>
<path d="M4053 4345 c-6 -14 -7 -25 -2 -25 11 0 22 25 17 39 -1 6 -8 -1 -15
-14z"/>
<path d="M4005 4350 c3 -5 8 -10 11 -10 2 0 4 5 4 10 0 6 -5 10 -11 10 -5 0
-7 -4 -4 -10z"/>
<path d="M3936 4291 c-4 -7 -5 -15 -2 -18 9 -9 19 4 14 18 -4 11 -6 11 -12 0z"/>
<path d="M4085 4290 c3 -5 8 -10 11 -10 2 0 4 5 4 10 0 6 -5 10 -11 10 -5 0
-7 -4 -4 -10z"/>
<path d="M3970 4220 c0 -5 5 -10 10 -10 6 0 10 5 10 10 0 6 -4 10 -10 10 -5 0
-10 -4 -10 -10z"/>
<path d="M3920 4204 c0 -8 5 -12 10 -9 6 4 8 11 5 16 -9 14 -15 11 -15 -7z"/>
<path d="M4011 4144 c0 -11 3 -14 6 -6 3 7 2 16 -1 19 -3 4 -6 -2 -5 -13z"/>
<path d="M3892 4120 c-7 -20 -7 -32 -1 -36 13 -8 15 -5 23 28 9 37 -10 44 -22
8z"/>
<path d="M3986 4083 c-16 -54 -18 -95 -6 -91 14 4 42 87 34 100 -9 14 -22 9
-28 -9z"/>
<path d="M3878 4044 c-6 -8 -68 -256 -68 -270 0 -13 30 -1 34 14 31 107 56
289 34 256z"/>
<path d="M3967 3973 c-11 -20 -16 -63 -8 -63 12 0 16 8 25 43 6 24 -6 39 -17
20z"/>
<path d="M3940 3873 c0 -5 -11 -62 -25 -128 -28 -136 -28 -135 -15 -135 5 0
13 17 18 38 56 227 56 232 31 232 -5 0 -9 -3 -9 -7z"/>
<path d="M3885 3570 c3 -5 10 -10 16 -10 5 0 9 5 9 10 0 6 -7 10 -16 10 -8 0
-12 -4 -9 -10z"/>
<path d="M3731 3403 c-35 -165 -35 -163 -21 -163 5 0 12 17 16 38 4 20 17 81
30 134 25 103 29 138 15 138 -4 0 -22 -66 -40 -147z"/>
<path d="M3861 3498 c-6 -17 -11 -40 -11 -52 1 -20 1 -20 20 3 21 24 27 66 11
75 -5 3 -14 -8 -20 -26z"/>
<path d="M3845 3400 c-3 -5 -1 -10 4 -10 6 0 11 5 11 10 0 6 -2 10 -4 10 -3 0
-8 -4 -11 -10z"/>
<path d="M3846 3373 c-11 -11 -6 -23 8 -23 8 0 17 4 20 9 7 10 -19 23 -28 14z"/>
<path d="M3777 3313 c-10 -18 -18 -123 -9 -123 13 0 33 112 22 123 -4 5 -10 5
-13 0z"/>
<path d="M3820 3294 c-18 -45 -24 -114 -11 -114 6 0 11 3 11 8 1 4 7 33 14 64
15 61 4 91 -14 42z"/>
<path d="M3790 3160 c0 -5 7 -10 16 -10 8 0 12 5 9 10 -3 6 -10 10 -16 10 -5
0 -9 -4 -9 -10z"/>
<path d="M3780 3115 c0 -29 0 -29 34 -12 l26 14 -26 11 c-34 16 -34 16 -34
-13z"/>
<path d="M3667 3106 c-3 -8 -2 -18 3 -21 13 -8 24 15 12 27 -6 6 -11 4 -15 -6z"/>
<path d="M3736 3094 c-3 -9 -6 -32 -6 -52 1 -44 14 -27 24 31 7 37 -6 52 -18
21z"/>
<path d="M3657 3053 c-10 -10 -8 -43 2 -43 9 0 21 24 21 41 0 11 -14 12 -23 2z"/>
<path d="M3765 3051 c-6 -11 9 -23 19 -14 9 9 7 23 -3 23 -6 0 -12 -4 -16 -9z"/>
<path d="M3760 3010 c0 -5 5 -10 10 -10 6 0 10 5 10 10 0 6 -4 10 -10 10 -5 0
-10 -4 -10 -10z"/>
<path d="M3620 2829 c0 -5 5 -7 10 -4 6 3 10 8 10 11 0 2 -4 4 -10 4 -5 0 -10
-5 -10 -11z"/>
<path d="M2665 5220 c3 -5 8 -10 11 -10 2 0 4 5 4 10 0 6 -5 10 -11 10 -5 0
-7 -4 -4 -10z"/>
<path d="M2768 4535 c-2 -3 6 -47 18 -98 27 -106 29 -127 12 -127 -8 -1 -5 -7
6 -15 19 -14 27 -44 47 -165 6 -36 14 -72 19 -81 5 -10 4 -21 -2 -27 -6 -6 -6
-16 0 -28 41 -81 68 -204 43 -204 -6 0 -11 -7 -11 -15 0 -8 6 -15 14 -15 8 0
19 -13 25 -30 5 -16 15 -30 20 -30 6 0 8 -6 5 -14 -7 -17 12 -31 21 -15 4 6 2
16 -4 22 -6 6 -11 19 -11 29 0 28 -180 802 -189 811 -4 4 -10 5 -13 2z"/>
<path d="M2880 4384 c0 -8 5 -12 10 -9 6 4 8 11 5 16 -9 14 -15 11 -15 -7z"/>
<path d="M2780 4350 c0 -5 5 -10 11 -10 5 0 7 5 4 10 -3 6 -8 10 -11 10 -2 0
-4 -4 -4 -10z"/>
<path d="M2887 4333 c-8 -13 14 -83 26 -83 5 0 6 16 2 38 -7 40 -19 59 -28 45z"/>
<path d="M2916 4204 c4 -15 7 -35 8 -46 1 -10 6 -18 11 -19 15 0 17 33 6 64
-14 35 -34 36 -25 1z"/>
<path d="M2953 4036 c2 -30 8 -60 14 -68 6 -7 12 -21 14 -31 2 -10 9 -17 14
-15 6 2 10 5 9 8 -11 58 -40 160 -46 160 -5 0 -7 -24 -5 -54z"/>
<path d="M2980 3875 c0 -8 4 -15 10 -15 18 0 42 -73 37 -112 -3 -21 -2 -40 2
-43 5 -2 8 -19 9 -36 1 -43 21 -89 39 -89 10 0 13 6 8 18 -12 30 -36 154 -31
159 3 3 -1 22 -9 42 -7 20 -16 48 -19 64 -7 29 -46 40 -46 12z"/>
<path d="M2880 3851 c0 -12 5 -21 10 -21 6 0 10 6 10 14 0 8 -4 18 -10 21 -5
3 -10 -3 -10 -14z"/>
<path d="M2985 3820 c3 -5 8 -10 11 -10 2 0 4 5 4 10 0 6 -5 10 -11 10 -5 0
-7 -4 -4 -10z"/>
<path d="M2906 3731 c-8 -12 3 -41 15 -41 5 0 9 11 9 25 0 25 -14 34 -24 16z"/>
<path d="M2966 3632 c-6 -10 31 -59 39 -51 3 4 1 18 -4 33 -10 26 -25 34 -35
18z"/>
<path d="M3070 3546 c0 -15 18 -31 26 -23 7 7 -7 37 -17 37 -5 0 -9 -6 -9 -14z"/>
<path d="M2987 3543 c-2 -5 -1 -19 2 -32 6 -21 8 -22 20 -7 7 8 11 23 7 31 -6
16 -22 20 -29 8z"/>
<path d="M3093 3458 c18 -59 38 -62 24 -3 -6 25 -16 45 -23 45 -10 0 -10 -8
-1 -42z"/>
<path d="M3020 3440 c0 -5 5 -10 11 -10 5 0 7 5 4 10 -3 6 -8 10 -11 10 -2 0
-4 -4 -4 -10z"/>
<path d="M2982 3398 c6 -18 28 -21 28 -4 0 9 -7 16 -16 16 -9 0 -14 -5 -12
-12z"/>
<path d="M3027 3385 c-3 -16 2 -34 14 -48 l18 -22 1 25 c0 33 -10 70 -20 70
-4 0 -10 -11 -13 -25z"/>
<path d="M3105 3391 c-6 -11 9 -23 19 -14 9 9 7 23 -3 23 -6 0 -12 -4 -16 -9z"/>
<path d="M3000 3344 c0 -8 5 -12 10 -9 6 4 8 11 5 16 -9 14 -15 11 -15 -7z"/>
<path d="M3120 3343 c0 -24 16 -48 23 -36 8 13 -3 53 -14 53 -5 0 -9 -8 -9
-17z"/>
<path d="M3010 3299 c0 -5 5 -7 10 -4 6 3 10 8 10 11 0 2 -4 4 -10 4 -5 0 -10
-5 -10 -11z"/>
<path d="M3045 3300 c-3 -5 -1 -18 5 -29 5 -11 10 -31 10 -45 0 -14 5 -28 11
-32 6 -3 9 -19 5 -35 -4 -22 -2 -29 9 -29 20 0 19 48 -1 122 -16 56 -26 69
-39 48z"/>
<path d="M3138 3284 c-3 -3 -1 -20 5 -37 5 -18 12 -38 14 -46 8 -32 15 1 9 44
-7 42 -15 53 -28 39z"/>
<path d="M3110 3250 c0 -5 5 -10 10 -10 6 0 10 5 10 10 0 6 -4 10 -10 10 -5 0
-10 -4 -10 -10z"/>
<path d="M3020 3230 c0 -5 7 -10 16 -10 8 0 12 5 9 10 -3 6 -10 10 -16 10 -5
0 -9 -4 -9 -10z"/>
<path d="M3030 3190 c0 -5 7 -10 16 -10 8 0 12 5 9 10 -3 6 -10 10 -16 10 -5
0 -9 -4 -9 -10z"/>
<path d="M3045 3150 c3 -5 8 -10 11 -10 2 0 4 5 4 10 0 6 -5 10 -11 10 -5 0
-7 -4 -4 -10z"/>
<path d="M3165 3150 c-3 -5 -1 -10 4 -10 6 0 11 5 11 10 0 6 -2 10 -4 10 -3 0
-8 -4 -11 -10z"/>
<path d="M3120 3140 c0 -5 5 -10 10 -10 6 0 10 5 10 10 0 6 -4 10 -10 10 -5 0
-10 -4 -10 -10z"/>
<path d="M3040 3110 c0 -5 7 -10 15 -10 8 0 15 5 15 10 0 6 -7 10 -15 10 -8 0
-15 -4 -15 -10z"/>
<path d="M3170 3105 c-10 -12 -10 -15 4 -15 9 0 16 7 16 15 0 8 -2 15 -4 15
-2 0 -9 -7 -16 -15z"/>
<path d="M3086 3088 c4 -13 7 -35 6 -50 0 -18 5 -28 14 -28 18 0 18 -10 -1
-36 -16 -24 -9 -39 12 -23 16 14 17 -3 1 -19 -9 -9 -6 -12 15 -12 15 0 27 2
27 4 0 12 -32 139 -40 161 -12 32 -45 35 -34 3z"/>
<path d="M3190 3049 c0 -5 5 -7 10 -4 6 3 10 8 10 11 0 2 -4 4 -10 4 -5 0 -10
-5 -10 -11z"/>
<path d="M3155 3010 c-3 -5 1 -10 10 -10 9 0 13 5 10 10 -3 6 -8 10 -10 10 -2
0 -7 -4 -10 -10z"/>
<path d="M3165 2970 c-3 -5 -1 -10 4 -10 6 0 11 5 11 10 0 6 -2 10 -4 10 -3 0
-8 -4 -11 -10z"/>
<path d="M3216 2932 c-3 -6 -1 -14 5 -17 15 -10 25 3 12 16 -7 7 -13 7 -17 1z"/>
<path d="M1825 5259 c-10 -15 3 -25 16 -12 7 7 7 13 1 17 -6 3 -14 1 -17 -5z"/>
<path d="M1952 5059 c2 -7 10 -15 17 -17 8 -3 12 1 9 9 -2 7 -10 15 -17 17 -8
3 -12 -1 -9 -9z"/>
<path d="M2040 4852 c0 -15 25 -62 33 -62 10 0 9 2 -9 38 -15 31 -24 40 -24
24z"/>
<path d="M2140 4730 c0 -5 5 -10 10 -10 6 0 10 5 10 10 0 6 -4 10 -10 10 -5 0
-10 -4 -10 -10z"/>
<path d="M2050 4691 c0 -16 12 -41 20 -41 4 0 5 11 2 25 -4 23 -22 36 -22 16z"/>
<path d="M2185 4628 c4 -13 16 -36 27 -53 18 -27 19 -28 12 -5 -8 31 -33 80
-40 80 -3 0 -2 -10 1 -22z"/>
<path d="M2130 4631 c0 -5 5 -13 10 -16 6 -3 10 -2 10 4 0 5 -4 13 -10 16 -5
3 -10 2 -10 -4z"/>
<path d="M2164 4553 c22 -60 71 -179 121 -293 26 -58 64 -150 86 -205 22 -55
58 -138 79 -185 21 -47 72 -159 114 -250 41 -91 93 -202 115 -248 23 -45 48
-98 55 -117 13 -31 46 -49 46 -25 0 16 -23 60 -32 60 -4 0 -8 10 -8 21 0 12
-11 42 -24 68 -14 25 -43 87 -66 136 -23 50 -52 113 -65 140 -74 160 -166 371
-171 393 -4 15 -10 32 -15 37 -4 6 -21 44 -37 85 -17 41 -55 127 -84 190 -30
63 -65 141 -77 173 -13 31 -29 57 -37 57 -11 0 -11 -6 0 -37z"/>
<path d="M2270 4434 c1 -5 7 -20 15 -34 13 -24 14 -24 15 -4 0 12 -7 27 -15
34 -8 7 -15 9 -15 4z"/>
<path d="M2316 4332 c-3 -5 1 -18 9 -28 14 -18 14 -18 15 3 0 23 -15 39 -24
25z"/>
<path d="M2350 4258 c0 -9 5 -20 10 -23 13 -8 13 5 0 25 -8 13 -10 13 -10 -2z"/>
<path d="M2410 4219 c0 -5 5 -7 10 -4 6 3 10 8 10 11 0 2 -4 4 -10 4 -5 0 -10
-5 -10 -11z"/>
<path d="M2400 4140 c0 -5 5 -10 11 -10 5 0 7 5 4 10 -3 6 -8 10 -11 10 -2 0
-4 -4 -4 -10z"/>
<path d="M2420 4090 c0 -5 5 -10 10 -10 6 0 10 5 10 10 0 6 -4 10 -10 10 -5 0
-10 -4 -10 -10z"/>
<path d="M2450 4042 c0 -17 67 -179 87 -210 30 -47 23 -13 -15 74 -46 107 -71
154 -72 136z"/>
<path d="M2560 3876 c0 -9 5 -16 10 -16 6 0 10 4 10 9 0 6 -4 13 -10 16 -5 3
-10 -1 -10 -9z"/>
<path d="M2366 3833 c9 -38 33 -83 43 -83 5 0 7 9 4 20 -3 11 -9 20 -13 20 -4
0 -11 16 -14 35 -4 19 -11 35 -17 35 -5 0 -7 -12 -3 -27z"/>
<path d="M2590 3801 c0 -6 5 -13 10 -16 6 -3 10 1 10 9 0 9 -4 16 -10 16 -5 0
-10 -4 -10 -9z"/>
<path d="M2560 3772 c0 -7 75 -176 263 -592 27 -59 50 -96 60 -98 20 -4 32 21
22 46 -7 15 -9 14 -15 -8 l-8 -25 -11 30 c-11 31 -68 156 -217 483 -68 149
-94 195 -94 164z"/>
<path d="M2420 3705 c0 -10 29 -82 64 -159 36 -78 68 -153 71 -168 4 -16 13
-28 21 -28 8 0 14 2 14 4 0 14 -36 102 -64 156 -18 36 -43 92 -56 125 -26 68
-50 102 -50 70z"/>
<path d="M2832 3268 c5 -15 28 -23 28 -10 0 5 -7 13 -16 16 -10 4 -14 1 -12
-6z"/>
<path d="M2615 3250 c3 -5 8 -10 11 -10 2 0 4 5 4 10 0 6 -5 10 -11 10 -5 0
-7 -4 -4 -10z"/>
<path d="M2776 3202 c-9 -14 9 -65 27 -76 25 -16 29 -3 12 37 -16 38 -30 53
-39 39z"/>
<path d="M2652 3168 c6 -18 28 -21 28 -4 0 9 -7 16 -16 16 -9 0 -14 -5 -12
-12z"/>
<path d="M2670 3124 c0 -23 43 -94 58 -94 16 0 16 3 -13 60 -25 49 -45 65 -45
34z"/>
<path d="M2810 3094 c0 -3 5 -14 10 -25 9 -15 7 -21 -5 -25 -22 -9 -19 -26 4
-19 22 7 45 -26 81 -118 22 -56 36 -75 47 -63 6 6 -34 112 -51 136 -13 17 -41
76 -50 103 -5 15 -36 25 -36 11z"/>
<path d="M2889 3032 c12 -40 41 -95 48 -88 7 7 -37 116 -47 116 -5 0 -5 -13
-1 -28z"/>
<path d="M2730 3010 c0 -5 5 -10 10 -10 6 0 10 5 10 10 0 6 -4 10 -10 10 -5 0
-10 -4 -10 -10z"/>
<path d="M2746 2965 c4 -8 10 -15 15 -15 5 0 9 7 9 15 0 8 -7 15 -15 15 -9 0
-12 -6 -9 -15z"/>
<path d="M2940 2910 c0 -5 5 -10 10 -10 6 0 10 5 10 10 0 6 -4 10 -10 10 -5 0
-10 -4 -10 -10z"/>
<path d="M2946 2811 c-4 -5 -2 -12 3 -15 5 -4 12 -2 15 3 4 5 2 12 -3 15 -5 4
-12 2 -15 -3z"/>
<path d="M2980 2815 c0 -2 5 -16 12 -30 16 -35 29 -31 17 5 -6 17 -15 30 -20
30 -5 0 -9 -2 -9 -5z"/>
<path d="M2980 2740 c0 -5 5 -10 11 -10 5 0 7 5 4 10 -3 6 -8 10 -11 10 -2 0
-4 -4 -4 -10z"/>
<path d="M3005 2690 c3 -5 8 -10 11 -10 2 0 4 5 4 10 0 6 -5 10 -11 10 -5 0
-7 -4 -4 -10z"/>
<path d="M4727 4734 c-4 -4 -7 -14 -7 -23 0 -11 3 -12 11 -4 6 6 10 16 7 23
-2 6 -7 8 -11 4z"/>
<path d="M4800 4614 c0 -8 5 -12 10 -9 6 3 10 10 10 16 0 5 -4 9 -10 9 -5 0
-10 -7 -10 -16z"/>
<path d="M4625 4427 c-5 -7 -15 -25 -21 -42 -6 -16 -15 -38 -19 -47 -12 -29
13 -21 28 10 12 24 30 93 24 92 -1 -1 -6 -6 -12 -13z"/>
<path d="M4560 4379 c-13 -24 -4 -41 10 -19 10 16 13 40 5 40 -2 0 -9 -9 -15
-21z"/>
<path d="M4514 4279 c-17 -21 -24 -49 -14 -49 5 0 14 9 20 21 14 25 9 47 -6
28z"/>
<path d="M4550 4250 c0 -5 5 -10 10 -10 6 0 10 5 10 10 0 6 -4 10 -10 10 -5 0
-10 -4 -10 -10z"/>
<path d="M4525 4211 c-6 -11 9 -23 19 -14 9 9 7 23 -3 23 -6 0 -12 -4 -16 -9z"/>
<path d="M4497 4153 c-2 -5 -7 -21 -11 -38 -4 -16 -11 -32 -15 -35 -4 -3 -34
-63 -66 -135 -32 -71 -67 -142 -77 -157 -10 -14 -18 -31 -18 -36 0 -6 -22 -58
-50 -116 -27 -58 -59 -129 -71 -158 -11 -29 -29 -67 -39 -84 -27 -42 -120
-253 -120 -270 0 -8 4 -14 8 -14 9 0 41 67 149 310 35 80 90 199 122 265 32
66 84 179 116 250 32 72 66 146 76 166 11 20 19 42 19 48 0 12 -17 15 -23 4z"/>
<path d="M4443 4129 c-6 -8 -20 -36 -31 -62 -28 -63 -6 -57 26 7 23 47 27 81
5 55z"/>
<path d="M4530 4014 c0 -8 5 -12 10 -9 6 3 10 10 10 16 0 5 -4 9 -10 9 -5 0
-10 -7 -10 -16z"/>
<path d="M4450 3834 c0 -8 5 -12 10 -9 6 3 10 10 10 16 0 5 -4 9 -10 9 -5 0
-10 -7 -10 -16z"/>
<path d="M4430 3790 c0 -5 7 -10 16 -10 8 0 12 5 9 10 -3 6 -10 10 -16 10 -5
0 -9 -4 -9 -10z"/>
<path d="M4400 3710 c0 -5 5 -10 11 -10 5 0 7 5 4 10 -3 6 -8 10 -11 10 -2 0
-4 -4 -4 -10z"/>
<path d="M4360 3649 c-13 -24 -4 -41 10 -19 10 16 13 40 5 40 -2 0 -9 -9 -15
-21z"/>
<path d="M4307 3513 c-13 -12 -7 -23 13 -23 13 0 18 5 14 15 -7 16 -17 19 -27
8z"/>
<path d="M4293 3453 c9 -9 19 -14 23 -11 10 10 -6 28 -24 28 -15 0 -15 -1 1
-17z"/>
<path d="M4212 3320 c-14 -23 -16 -60 -3 -60 5 0 11 10 14 23 2 12 8 30 12 40
10 23 -7 22 -23 -3z"/>
<path d="M4130 3115 c0 -8 5 -15 10 -15 6 0 10 7 10 15 0 8 -4 15 -10 15 -5 0
-10 -7 -10 -15z"/>
<path d="M3897 2858 c-15 -39 -16 -48 -6 -48 13 0 22 24 16 47 -4 17 -4 17
-10 1z"/>
<path d="M3920 2800 c0 -16 7 -20 33 -20 l32 0 -25 20 c-32 25 -40 25 -40 0z"/>
<path d="M4000 2790 c0 -5 5 -10 10 -10 6 0 10 5 10 10 0 6 -4 10 -10 10 -5 0
-10 -4 -10 -10z"/>
<path d="M3915 2750 c-4 -6 5 -10 20 -10 15 0 24 4 20 10 -3 6 -12 10 -20 10
-8 0 -17 -4 -20 -10z"/>
<path d="M3886 2732 c-9 -16 12 -35 43 -37 39 -3 40 10 1 30 -33 17 -37 18
-44 7z"/>
<path d="M3870 2665 c0 -8 5 -15 10 -15 6 0 10 7 10 15 0 8 -4 15 -10 15 -5 0
-10 -7 -10 -15z"/>
<path d="M3850 2620 c0 -5 7 -10 15 -10 8 0 15 5 15 10 0 6 -7 10 -15 10 -8 0
-15 -4 -15 -10z"/>
<path d="M3830 2590 c0 -5 6 -10 13 -10 6 0 23 -3 37 -6 24 -5 24 -5 6 10 -22
18 -56 21 -56 6z"/>
<path d="M3802 2548 c-15 -19 -42 -76 -42 -88 0 -5 9 -10 20 -10 14 0 20 7 20
21 0 14 10 24 28 31 26 10 27 14 18 34 -12 26 -28 31 -44 12z"/>
<path d="M3735 2404 c-13 -21 -15 -31 -6 -50 6 -13 17 -24 26 -24 17 0 20 16
5 25 -6 4 -3 16 10 32 25 32 25 43 1 43 -10 0 -26 -12 -36 -26z"/>
<path d="M5610 4670 c0 -5 5 -10 10 -10 6 0 10 5 10 10 0 6 -4 10 -10 10 -5 0
-10 -4 -10 -10z"/>
<path d="M5580 4625 c-8 -9 -8 -15 -2 -15 12 0 26 19 19 26 -2 2 -10 -2 -17
-11z"/>
<path d="M5550 4579 c0 -5 5 -7 10 -4 6 3 10 8 10 11 0 2 -4 4 -10 4 -5 0 -10
-5 -10 -11z"/>
<path d="M5484 4517 c-28 -28 -77 -88 -110 -132 -33 -44 -88 -117 -122 -162
-59 -77 -72 -103 -54 -103 9 0 72 75 72 85 0 4 16 26 35 49 19 24 35 50 35 58
0 8 11 20 24 27 13 7 37 31 52 53 16 22 50 64 77 94 26 30 47 61 47 69 0 8 -1
15 -2 15 -2 0 -26 -24 -54 -53z"/>
<path d="M5166 4174 c-9 -8 -16 -19 -16 -24 0 -5 -9 -18 -21 -29 -15 -14 -17
-21 -8 -27 7 -4 14 -3 16 3 2 6 15 23 29 38 13 14 24 33 24 41 0 18 -5 18 -24
-2z"/>
<path d="M5165 4101 c-3 -5 -1 -12 5 -16 5 -3 10 1 10 9 0 18 -6 21 -15 7z"/>
<path d="M5140 4070 c0 -5 5 -10 11 -10 5 0 7 5 4 10 -3 6 -8 10 -11 10 -2 0
-4 -4 -4 -10z"/>
<path d="M5095 4060 c-3 -5 -1 -10 4 -10 6 0 11 5 11 10 0 6 -2 10 -4 10 -3 0
-8 -4 -11 -10z"/>
<path d="M5056 4025 c-3 -9 0 -15 8 -15 8 0 16 7 20 15 3 9 0 15 -8 15 -8 0
-16 -7 -20 -15z"/>
<path d="M5115 4019 c-11 -17 1 -21 15 -4 8 9 8 15 2 15 -6 0 -14 -5 -17 -11z"/>
<path d="M5076 3982 c-3 -6 -1 -14 5 -17 15 -10 25 3 12 16 -7 7 -13 7 -17 1z"/>
<path d="M5051 3946 c-14 -17 -1 -28 19 -16 11 7 12 12 4 20 -8 8 -14 7 -23
-4z"/>
<path d="M5175 3920 c3 -5 11 -10 16 -10 6 0 7 5 4 10 -3 6 -11 10 -16 10 -6
0 -7 -4 -4 -10z"/>
<path d="M5001 3876 c-15 -16 -19 -26 -11 -31 13 -8 50 22 50 42 0 20 -14 16
-39 -11z"/>
<path d="M4940 3867 c0 -7 -9 -23 -21 -36 -29 -31 -15 -40 16 -11 25 23 34 60
15 60 -5 0 -10 -6 -10 -13z"/>
<path d="M4925 3783 c-14 -21 -36 -54 -49 -73 -28 -40 -32 -60 -12 -60 16 0
116 136 116 158 0 25 -30 11 -55 -25z"/>
<path d="M5010 3696 c0 -9 5 -16 10 -16 6 0 10 4 10 9 0 6 -4 13 -10 16 -5 3
-10 -1 -10 -9z"/>
<path d="M4985 3660 c-3 -5 -1 -10 4 -10 6 0 11 5 11 10 0 6 -2 10 -4 10 -3 0
-8 -4 -11 -10z"/>
<path d="M4870 3510 c0 -5 5 -10 10 -10 6 0 10 5 10 10 0 6 -4 10 -10 10 -5 0
-10 -4 -10 -10z"/>
<path d="M4750 3450 c0 -5 5 -10 10 -10 6 0 10 5 10 10 0 6 -4 10 -10 10 -5 0
-10 -4 -10 -10z"/>
<path d="M4777 3380 c-20 -33 -5 -42 15 -10 7 11 19 20 26 20 7 0 10 5 7 10
-11 18 -30 10 -48 -20z"/>
<path d="M4657 3333 c-4 -3 -7 -13 -7 -21 0 -12 3 -12 15 -2 8 7 15 16 15 21
0 11 -14 12 -23 2z"/>
<path d="M4722 3310 c-7 -11 -9 -20 -4 -20 10 0 32 22 32 32 0 15 -15 8 -28
-12z"/>
<path d="M4620 3269 c0 -5 5 -7 10 -4 6 3 10 8 10 11 0 2 -4 4 -10 4 -5 0 -10
-5 -10 -11z"/>
<path d="M4564 3203 c-43 -54 -47 -63 -32 -63 12 0 78 81 78 95 0 15 -20 0
-46 -32z"/>
<path d="M4461 3065 c-22 -31 -41 -58 -41 -60 0 -3 -16 -26 -35 -51 -20 -26
-33 -49 -30 -52 8 -9 75 66 75 84 0 8 4 14 9 14 9 0 81 100 81 113 0 19 -21 2
-59 -48z"/>
<path d="M4450 2941 c-64 -87 -75 -109 -55 -113 10 -3 135 177 135 193 0 21
-19 2 -80 -80z"/>
<path d="M4320 2859 c0 -5 5 -7 10 -4 6 3 10 8 10 11 0 2 -4 4 -10 4 -5 0 -10
-5 -10 -11z"/>
<path d="M4256 2771 c-11 -12 -16 -24 -12 -28 9 -9 39 22 34 37 -2 7 -10 4
-22 -9z"/>
<path d="M4210 2721 c0 -14 18 -23 31 -15 8 4 7 9 -2 15 -18 11 -29 11 -29 0z"/>
<path d="M1076 4862 c-3 -6 -1 -14 5 -17 14 -9 20 -2 10 14 -6 8 -11 9 -15 3z"/>
<path d="M1134 4784 c3 -9 6 -18 6 -20 0 -2 7 -4 15 -4 18 0 19 12 3 28 -17
17 -31 15 -24 -4z"/>
<path d="M1180 4738 c0 -18 27 -44 37 -34 4 4 -3 16 -15 29 -18 17 -22 18 -22
5z"/>
<path d="M1490 4391 c0 -21 13 -41 26 -41 17 0 17 10 0 33 -14 19 -26 22 -26
8z"/>
<path d="M1535 4264 c28 -44 106 -153 148 -209 21 -27 52 -70 70 -94 39 -54
69 -70 41 -22 -10 18 -31 45 -45 60 -14 16 -29 35 -32 43 -9 22 -178 243 -190
247 -6 2 -3 -9 8 -25z"/>
<path d="M1660 4164 c13 -21 74 -117 137 -213 79 -120 111 -176 103 -181 -18
-11 45 -101 65 -94 14 6 19 -5 16 -33 -1 -6 6 -17 16 -25 10 -7 27 -30 37 -50
10 -21 27 -40 38 -44 10 -3 18 -11 17 -17 -3 -26 2 -37 16 -37 8 0 15 -7 15
-15 0 -8 5 -15 10 -15 6 0 10 -9 10 -20 0 -11 8 -24 18 -27 25 -10 52 -47 40
-54 -6 -4 3 -17 21 -30 17 -12 31 -31 31 -40 0 -11 9 -19 23 -21 16 -2 21 -9
19 -26 -2 -19 2 -22 18 -17 16 5 20 2 20 -20 0 -15 7 -28 18 -32 30 -11 115
-110 106 -124 -10 -17 -34 -9 -34 11 0 10 -10 24 -21 31 -23 12 -23 9 6 -39
17 -28 24 -31 50 -26 29 6 29 5 10 -9 -11 -9 -17 -19 -13 -23 4 -4 14 -1 22 5
23 19 38 3 31 -30 -4 -18 -2 -36 5 -44 15 -19 31 -10 24 13 -5 14 -4 15 5 2 5
-8 8 -25 5 -37 -6 -21 -4 -21 25 -10 17 6 31 15 31 19 0 12 -112 172 -179 256
-190 237 -324 417 -470 632 -199 293 -286 413 -300 418 -10 3 -7 -8 9 -34z"/>
<path d="M1840 3999 c0 -9 9 -24 20 -34 26 -23 26 -4 0 26 -15 18 -19 20 -20
8z"/>
<path d="M1890 3923 c0 -5 11 -21 25 -38 27 -33 34 -18 9 20 -16 24 -34 33
-34 18z"/>
<path d="M1816 3876 c3 -9 11 -16 16 -16 13 0 5 23 -10 28 -7 2 -10 -2 -6 -12z"/>
<path d="M1960 3827 c0 -21 137 -199 145 -188 3 6 -3 24 -15 39 -48 62 -100
137 -100 143 0 4 -7 9 -15 13 -8 3 -15 0 -15 -7z"/>
<path d="M2121 3614 c0 -11 3 -14 6 -6 3 7 2 16 -1 19 -3 4 -6 -2 -5 -13z"/>
<path d="M2145 3580 c3 -5 11 -10 16 -10 6 0 7 5 4 10 -3 6 -11 10 -16 10 -6
0 -7 -4 -4 -10z"/>
<path d="M2060 3442 c0 -11 22 -32 32 -32 5 0 4 9 -2 20 -11 20 -30 28 -30 12z"/>
<path d="M2320 3060 c11 -20 30 -28 30 -12 0 11 -22 32 -32 32 -5 0 -4 -9 2
-20z"/>
<path d="M2380 2976 c0 -14 29 -31 38 -21 6 6 -18 35 -29 35 -5 0 -9 -6 -9
-14z"/>
<path d="M2470 2860 c0 -5 5 -10 11 -10 5 0 7 5 4 10 -3 6 -8 10 -11 10 -2 0
-4 -4 -4 -10z"/>
<path d="M2630 2820 c0 -13 60 -80 71 -80 20 0 7 30 -26 59 -38 33 -45 36 -45
21z"/>
<path d="M2550 2748 c1 -16 39 -63 46 -56 6 7 -28 68 -38 68 -5 0 -8 -6 -8
-12z"/>
<path d="M2720 2701 c0 -12 29 -35 36 -28 11 10 -5 37 -21 37 -8 0 -15 -4 -15
-9z"/>
<path d="M2630 2636 c0 -9 5 -16 10 -16 6 0 10 4 10 9 0 6 -4 13 -10 16 -5 3
-10 -1 -10 -9z"/>
<path d="M2780 2630 c0 -5 5 -10 10 -10 6 0 10 5 10 10 0 6 -4 10 -10 10 -5 0
-10 -4 -10 -10z"/>
<path d="M2820 2588 c0 -18 18 -34 28 -24 3 4 -2 14 -11 23 -16 16 -17 16 -17
1z"/>
<path d="M2950 2390 c0 -5 5 -10 10 -10 6 0 10 5 10 10 0 6 -4 10 -10 10 -5 0
-10 -4 -10 -10z"/>
<path d="M6141 4078 c-44 -46 -39 -59 6 -15 20 21 34 40 31 43 -3 3 -20 -10
-37 -28z"/>
<path d="M5815 3839 c-10 -15 3 -25 16 -12 7 7 7 13 1 17 -6 3 -14 1 -17 -5z"/>
<path d="M5755 3790 c-3 -5 -2 -10 4 -10 5 0 13 5 16 10 3 6 2 10 -4 10 -5 0
-13 -4 -16 -10z"/>
<path d="M5820 3735 c-13 -14 -21 -27 -18 -30 2 -3 15 6 28 20 13 14 21 27 18
30 -2 3 -15 -6 -28 -20z"/>
<path d="M5705 3735 c-4 -11 -15 -28 -23 -37 -21 -24 1 -23 22 1 10 11 16 28
13 38 -4 17 -4 17 -12 -2z"/>
<path d="M5654 3569 c-24 -26 -25 -30 -7 -20 13 6 27 20 33 31 15 28 8 25 -26
-11z"/>
<path d="M5520 3580 c0 -5 5 -10 11 -10 5 0 7 5 4 10 -3 6 -8 10 -11 10 -2 0
-4 -4 -4 -10z"/>
<path d="M5470 3535 c-7 -8 -8 -15 -2 -15 5 0 15 7 22 15 7 8 8 15 2 15 -5 0
-15 -7 -22 -15z"/>
<path d="M5410 3519 c0 -5 5 -7 10 -4 6 3 10 8 10 11 0 2 -4 4 -10 4 -5 0 -10
-5 -10 -11z"/>
<path d="M5312 3445 c-23 -19 -38 -36 -34 -39 11 -6 92 52 92 65 0 15 -13 9
-58 -26z"/>
<path d="M5165 3314 c-11 -13 -32 -32 -46 -42 -65 -42 -256 -218 -247 -227 9
-9 328 270 328 288 0 14 -15 6 -35 -19z"/>
<path d="M5100 3000 c0 -5 4 -10 9 -10 6 0 13 5 16 10 3 6 -1 10 -9 10 -9 0
-16 -4 -16 -10z"/>
<path d="M5000 2950 c0 -5 5 -10 10 -10 6 0 10 5 10 10 0 6 -4 10 -10 10 -5 0
-10 -4 -10 -10z"/>
<path d="M5015 2920 c-3 -5 -1 -10 4 -10 6 0 11 5 11 10 0 6 -2 10 -4 10 -3 0
-8 -4 -11 -10z"/>
<path d="M4940 2849 c0 -5 5 -7 10 -4 6 3 10 8 10 11 0 2 -4 4 -10 4 -5 0 -10
-5 -10 -11z"/>
<path d="M4824 2798 c-43 -34 -66 -59 -60 -65 6 -6 96 68 96 79 0 12 -5 10
-36 -14z"/>
<path d="M4840 2765 c-14 -16 -10 -18 14 -9 9 3 16 10 16 15 0 14 -16 11 -30
-6z"/>
<path d="M4727 2669 c-63 -57 -79 -79 -58 -79 11 0 141 123 141 133 0 16 -19
4 -83 -54z"/>
<path d="M4650 2642 c0 -7 -6 -12 -14 -12 -8 0 -17 -7 -20 -16 -10 -26 -1 -26
24 1 13 14 20 28 17 32 -4 3 -7 1 -7 -5z"/>
<path d="M4605 2560 c-16 -16 -26 -33 -22 -36 8 -9 66 38 66 54 1 20 -13 14
-44 -18z"/>
<path d="M4522 2529 c-13 -16 -21 -29 -17 -29 15 0 55 34 55 46 0 21 -13 16
-38 -17z"/>
<path d="M4460 2470 c0 -5 5 -10 10 -10 6 0 10 5 10 10 0 6 -4 10 -10 10 -5 0
-10 -4 -10 -10z"/>
<path d="M1300 3695 c13 -14 28 -25 33 -25 6 0 0 11 -13 25 -13 14 -28 25 -33
25 -6 0 0 -11 13 -25z"/>
<path d="M1385 3620 c16 -16 31 -28 33 -25 7 7 -39 55 -52 55 -5 0 3 -13 19
-30z"/>
<path d="M1510 3512 c0 -13 23 -32 38 -32 7 0 10 4 7 10 -9 14 -45 32 -45 22z"/>
<path d="M1720 3310 c0 -5 7 -10 16 -10 8 0 12 5 9 10 -3 6 -10 10 -16 10 -5
0 -9 -4 -9 -10z"/>
<path d="M1760 3282 c0 -12 19 -26 26 -19 2 2 -2 10 -11 17 -9 8 -15 8 -15 2z"/>
<path d="M1900 3145 c7 -8 17 -15 22 -15 6 0 5 7 -2 15 -7 8 -17 15 -22 15 -6
0 -5 -7 2 -15z"/>
<path d="M2023 3033 c37 -36 71 -63 74 -59 8 7 -116 125 -132 125 -5 1 21 -29
58 -66z"/>
<path d="M2159 2909 c29 -27 56 -47 59 -44 7 7 -89 94 -103 94 -5 0 14 -22 44
-50z"/>
<path d="M2080 2940 c0 -5 5 -10 10 -10 6 0 10 5 10 10 0 6 -4 10 -10 10 -5 0
-10 -4 -10 -10z"/>
<path d="M2110 2912 c0 -5 7 -13 16 -16 10 -4 14 -1 12 6 -5 15 -28 23 -28 10z"/>
<path d="M2160 2870 c0 -5 5 -10 11 -10 5 0 7 5 4 10 -3 6 -8 10 -11 10 -2 0
-4 -4 -4 -10z"/>
<path d="M2015 2850 c4 -6 11 -8 16 -5 14 9 11 15 -7 15 -8 0 -12 -5 -9 -10z"/>
<path d="M2075 2850 c3 -5 10 -10 16 -10 5 0 9 5 9 10 0 6 -7 10 -16 10 -8 0
-12 -4 -9 -10z"/>
<path d="M2240 2844 c0 -10 166 -169 199 -192 20 -13 23 -14 19 -2 -5 17 -218
205 -218 194z"/>
<path d="M2067 2798 c18 -18 36 -28 40 -24 9 9 -42 56 -60 56 -6 0 3 -14 20
-32z"/>
<path d="M2120 2750 c0 -5 5 -10 10 -10 6 0 10 5 10 10 0 6 -4 10 -10 10 -5 0
-10 -4 -10 -10z"/>
<path d="M2235 2650 c3 -5 8 -10 11 -10 2 0 4 5 4 10 0 6 -5 10 -11 10 -5 0
-7 -4 -4 -10z"/>
<path d="M2275 2621 c-3 -5 -1 -12 5 -16 5 -3 10 1 10 9 0 18 -6 21 -15 7z"/>
<path d="M2391 2564 c0 -11 3 -14 6 -6 3 7 2 16 -1 19 -3 4 -6 -2 -5 -13z"/>
<path d="M2560 2545 c7 -8 17 -15 22 -15 6 0 5 7 -2 15 -7 8 -17 15 -22 15 -6
0 -5 -7 2 -15z"/>
<path d="M2750 2330 c0 -5 5 -10 10 -10 6 0 10 5 10 10 0 6 -4 10 -10 10 -5 0
-10 -4 -10 -10z"/>
<path d="M1790 2950 c0 -5 7 -10 16 -10 8 0 12 5 9 10 -3 6 -10 10 -16 10 -5
0 -9 -4 -9 -10z"/>
<path d="M1915 2840 c3 -5 11 -10 16 -10 6 0 7 5 4 10 -3 6 -11 10 -16 10 -6
0 -7 -4 -4 -10z"/>
<path d="M6315 3170 c-3 -5 -1 -10 4 -10 6 0 11 5 11 10 0 6 -2 10 -4 10 -3 0
-8 -4 -11 -10z"/>
<path d="M6270 3150 c-8 -5 -11 -12 -7 -16 4 -4 13 -2 19 4 15 15 7 24 -12 12z"/>
<path d="M6230 3120 c0 -5 5 -10 10 -10 6 0 10 5 10 10 0 6 -4 10 -10 10 -5 0
-10 -4 -10 -10z"/>
<path d="M6152 3080 c-22 -16 -56 -36 -75 -43 -18 -8 -45 -26 -60 -41 -14 -14
-32 -26 -39 -26 -7 0 -30 -11 -50 -25 -20 -14 -41 -25 -47 -25 -20 0 -81 -42
-81 -56 0 -16 33 1 235 115 119 68 178 107 183 122 7 18 -26 8 -66 -21z"/>
<path d="M5610 2890 c0 -5 5 -10 10 -10 6 0 10 5 10 10 0 6 -4 10 -10 10 -5 0
-10 -4 -10 -10z"/>
<path d="M5753 2845 c-19 -21 -16 -27 7 -13 11 7 20 16 20 20 0 12 -14 9 -27
-7z"/>
<path d="M5803 2832 c-18 -9 -33 -23 -33 -29 0 -16 16 -17 33 -3 7 6 23 19 37
30 31 24 8 26 -37 2z"/>
<path d="M5695 2819 c-11 -17 1 -21 15 -4 8 9 8 15 2 15 -6 0 -14 -5 -17 -11z"/>
<path d="M5420 2800 c0 -5 5 -10 11 -10 5 0 7 5 4 10 -3 6 -8 10 -11 10 -2 0
-4 -4 -4 -10z"/>
<path d="M5650 2791 c0 -6 5 -13 10 -16 6 -3 10 1 10 9 0 9 -4 16 -10 16 -5 0
-10 -4 -10 -9z"/>
<path d="M5395 2780 c-3 -5 -1 -10 4 -10 6 0 11 5 11 10 0 6 -2 10 -4 10 -3 0
-8 -4 -11 -10z"/>
<path d="M5617 2783 c-12 -11 -8 -23 8 -23 8 0 15 7 15 15 0 16 -12 20 -23 8z"/>
<path d="M5697 2773 c-12 -11 -8 -23 8 -23 8 0 15 7 15 15 0 16 -12 20 -23 8z"/>
<path d="M5360 2760 c0 -5 5 -10 11 -10 5 0 7 5 4 10 -3 6 -8 10 -11 10 -2 0
-4 -4 -4 -10z"/>
<path d="M5542 2748 c-7 -7 -12 -16 -12 -20 0 -15 27 -8 45 12 18 19 17 20 -1
20 -11 0 -25 -5 -32 -12z"/>
<path d="M5418 2684 c-38 -19 -68 -38 -68 -44 0 -15 18 -21 37 -11 10 5 29 14
43 20 57 27 80 43 80 57 0 21 -18 17 -92 -22z"/>
<path d="M5155 2650 c-3 -5 1 -10 9 -10 9 0 16 5 16 10 0 6 -4 10 -9 10 -6 0
-13 -4 -16 -10z"/>
<path d="M5114 2641 c4 -6 1 -11 -8 -11 -15 0 -32 -18 -23 -26 2 -3 16 1 31 7
27 13 30 29 6 37 -7 3 -10 0 -6 -7z"/>
<path d="M5220 2610 c0 -5 5 -10 10 -10 6 0 10 5 10 10 0 6 -4 10 -10 10 -5 0
-10 -4 -10 -10z"/>
<path d="M5036 2584 c-11 -7 -16 -17 -13 -21 4 -4 15 1 24 10 9 9 15 19 12 21
-2 2 -13 -2 -23 -10z"/>
<path d="M5027 2514 c-4 -4 -4 -10 -1 -15 6 -10 34 0 34 12 0 10 -24 12 -33 3z"/>
<path d="M4995 2490 c-3 -5 -1 -10 4 -10 6 0 11 5 11 10 0 6 -2 10 -4 10 -3 0
-8 -4 -11 -10z"/>
<path d="M4918 2454 c-46 -23 -62 -44 -35 -44 18 0 100 57 90 63 -4 3 -29 -6
-55 -19z"/>
<path d="M4678 2401 c-87 -41 -106 -55 -89 -65 12 -8 181 81 181 95 0 14 -8
11 -92 -30z"/>
<path d="M4785 2387 c-22 -12 -42 -24 -45 -27 -3 -3 -22 -14 -43 -25 -21 -11
-44 -26 -50 -34 -10 -12 -8 -13 13 -6 14 4 36 15 50 24 14 10 51 30 82 47 55
28 72 44 46 44 -7 0 -31 -10 -53 -23z"/>
<path d="M4503 2235 c-8 -23 4 -30 22 -12 19 20 19 27 0 27 -9 0 -18 -7 -22
-15z"/>
<path d="M4460 2216 c0 -8 5 -18 10 -21 6 -3 10 1 10 9 0 8 -4 18 -10 21 -5 3
-10 -1 -10 -9z"/>
<path d="M586 3171 c-4 -5 -2 -12 3 -15 5 -4 12 -2 15 3 4 5 2 12 -3 15 -5 4
-12 2 -15 -3z"/>
<path d="M770 3110 c0 -5 5 -10 10 -10 6 0 10 5 10 10 0 6 -4 10 -10 10 -5 0
-10 -4 -10 -10z"/>
<path d="M944 3006 c11 -9 27 -16 35 -16 21 0 2 16 -29 24 -24 7 -24 6 -6 -8z"/>
<path d="M1130 2954 c0 -5 64 -34 77 -34 4 0 -5 9 -22 20 -29 19 -55 26 -55
14z"/>
<path d="M1100 2920 c0 -5 5 -10 11 -10 5 0 7 5 4 10 -3 6 -8 10 -11 10 -2 0
-4 -4 -4 -10z"/>
<path d="M1010 2911 c0 -11 31 -24 39 -16 3 3 -1 10 -9 15 -19 12 -30 12 -30
1z"/>
<path d="M1134 2901 c5 -8 120 -75 251 -146 39 -21 104 -59 145 -83 137 -82
389 -214 634 -332 39 -18 56 -18 56 0 0 5 -80 49 -177 98 -191 95 -465 240
-473 251 -5 6 -45 28 -155 83 -33 17 -103 55 -156 84 -89 49 -138 67 -125 45z"/>
<path d="M1310 2855 c27 -14 36 -13 25 4 -3 6 -16 11 -28 11 -21 -1 -21 -1 3
-15z"/>
<path d="M1435 2840 c3 -5 8 -10 11 -10 2 0 4 5 4 10 0 6 -5 10 -11 10 -5 0
-7 -4 -4 -10z"/>
<path d="M1375 2820 c3 -5 13 -10 21 -10 8 0 12 5 9 10 -3 6 -13 10 -21 10 -8
0 -12 -4 -9 -10z"/>
<path d="M1430 2790 c20 -13 33 -13 25 0 -3 6 -14 10 -23 10 -15 0 -15 -2 -2
-10z"/>
<path d="M1600 2706 c0 -11 162 -97 176 -94 10 2 -22 23 -73 51 -87 45 -103
52 -103 43z"/>
<path d="M1760 2660 c0 -5 5 -10 11 -10 5 0 7 5 4 10 -3 6 -8 10 -11 10 -2 0
-4 -4 -4 -10z"/>
<path d="M1810 2630 c0 -5 7 -10 16 -10 8 0 12 5 9 10 -3 6 -10 10 -16 10 -5
0 -9 -4 -9 -10z"/>
<path d="M1806 2592 c-7 -12 543 -295 560 -288 18 7 15 37 -5 44 -10 3 -12 0
-8 -12 9 -22 4 -21 -71 22 -74 43 -427 225 -454 235 -10 3 -19 3 -22 -1z"/>
<path d="M1630 2522 c0 -13 65 -45 80 -40 8 2 -5 14 -29 26 -46 24 -51 26 -51
14z"/>
<path d="M1740 2460 c0 -12 21 -25 140 -87 52 -27 105 -56 117 -63 28 -18 44
-3 18 16 -21 16 -262 144 -270 144 -3 0 -5 -4 -5 -10z"/>
<path d="M2240 2410 c0 -5 5 -10 10 -10 6 0 10 5 10 10 0 6 -4 10 -10 10 -5 0
-10 -4 -10 -10z"/>
<path d="M2234 2329 c-8 -14 34 -50 55 -46 23 4 16 21 -17 40 -22 13 -32 15
-38 6z"/>
<path d="M2380 2292 c0 -12 62 -52 81 -52 16 0 5 10 -43 39 -21 13 -38 18 -38
13z"/>
<path d="M2095 2260 c3 -5 8 -10 11 -10 2 0 4 5 4 10 0 6 -5 10 -11 10 -5 0
-7 -4 -4 -10z"/>
<path d="M2160 2232 c0 -4 8 -12 18 -17 75 -40 93 -48 99 -41 11 10 -25 36
-59 43 -16 3 -28 9 -28 14 0 5 -7 9 -15 9 -8 0 -15 -3 -15 -8z"/>
<path d="M2553 2175 c-7 -8 -13 -20 -13 -27 1 -8 6 -6 15 5 9 13 21 17 37 12
22 -6 22 -6 4 9 -24 19 -27 19 -43 1z"/>
<path d="M2295 2170 c-3 -5 -1 -10 4 -10 6 0 11 5 11 10 0 6 -2 10 -4 10 -3 0
-8 -4 -11 -10z"/>
<path d="M2320 2150 c0 -5 7 -10 15 -10 8 0 15 5 15 10 0 6 -7 10 -15 10 -8 0
-15 -4 -15 -10z"/>
<path d="M2635 2110 c3 -5 8 -10 11 -10 2 0 4 5 4 10 0 6 -5 10 -11 10 -5 0
-7 -4 -4 -10z"/>
<path d="M4440 2590 c-8 -5 -11 -12 -7 -16 4 -4 13 -2 19 4 15 15 7 24 -12 12z"/>
<path d="M4325 2480 c-3 -5 -2 -10 4 -10 5 0 13 5 16 10 3 6 2 10 -4 10 -5 0
-13 -4 -16 -10z"/>
<path d="M4135 2220 c3 -5 11 -10 16 -10 6 0 7 5 4 10 -3 6 -11 10 -16 10 -6
0 -7 -4 -4 -10z"/>
</g>
</svg>
